<?xml version="1.0" standalone="no"?>
<!DOCTYPE svg PUBLIC "-//W3C//DTD SVG 1.1//EN" "http://www.w3.org/Graphics/SVG/1.1/DTD/svg11.dtd" >
<svg xmlns="http://www.w3.org/2000/svg" xmlns:xlink="http://www.w3.org/1999/xlink" version="1.1">
<metadata>
Created by FontForge 20150318 at Sat Apr  4 14:43:46 2015
 By uniteet7
Copyright (C) 1993; Type Market Ltd. Moscow, 119136, Box 20; phone:(095)1427712; Created by A.Kustov
</metadata>
<defs>
<font id="CricketNormal" horiz-adv-x="572" >
  <font-face 
    font-family="CricketNormal"
    font-weight="400"
    font-stretch="normal"
    units-per-em="1000"
    panose-1="0 0 0 0 0 0 0 0 0 0"
    ascent="800"
    descent="-200"
    x-height="540"
    cap-height="691"
    bbox="-155 -184 1016 848"
    underline-thickness="50"
    underline-position="-23"
    unicode-range="U+0020-2122"
  />
<missing-glyph horiz-adv-x="827" 
d="M51 0v827h725v-827h-725zM725 51v725h-623v-725h623z" />
    <glyph glyph-name=".notdef" horiz-adv-x="827" 
d="M51 0v827h725v-827h-725zM725 51v725h-623v-725h623z" />
    <glyph glyph-name=".null" horiz-adv-x="0" 
 />
    <glyph glyph-name="nonmarkingreturn" horiz-adv-x="278" 
 />
    <glyph glyph-name="space" unicode=" " horiz-adv-x="278" 
 />
    <glyph glyph-name="exclam" unicode="!" horiz-adv-x="297" 
d="M138 0h-83q-34 0 -34 27q0 12 2 19l12 52h83q35 0 35 -25q0 -10 -2 -17zM146 691h113q36 0 36 -32q0 -5 -1.5 -12t-2.5 -11l-143 -491h-98l109 481q4 15 4 26q0 16 -21 20z" />
    <glyph glyph-name="quotedbl" unicode="&#x22;" horiz-adv-x="474" 
d="M278 418v271h98v-271h-98zM98 418v271h98v-271h-98z" />
    <glyph glyph-name="numbersign" unicode="#" horiz-adv-x="556" 
d="M509 289l-12 -90h-97l-28 -199h-94l28 199h-97l-28 -199h-94l28 199h-97l12 90h97l17 120h-97l12 90h97l28 199h94l-28 -199h97l28 199h94l-28 -199h97l-12 -90h-97l-17 -120h97zM335 409h-97l-17 -120h97z" />
    <glyph glyph-name="dollar" unicode="$" horiz-adv-x="553" 
d="M261 0h-11l-15 -66h-33q-22 0 -31.5 6.5t-9.5 24.5v16q3 11 4 15l1 4h-90q-31 0 -46.5 9.5t-15.5 33.5q0 14 4 29l18 78h18q4 -35 43 -35h96l49 205l-36 15q-46 20 -71 54t-25 85q0 25 8 62q20 84 66.5 119.5t130.5 35.5h16l14 61h32q22 0 31 -5.5t9 -22.5q0 -10 -5 -33
h115l-13 -57q-7 -30 -20.5 -41.5t-44.5 -11.5h-62l-38 -162l35 -15q51 -22 74 -51q27 -34 27 -88q0 -23 -1.5 -34t-6.5 -32q-24 -105 -73 -152t-143 -47zM343 235q0 30 -26 49l-38 -162q26 8 39 27.5t21 53.5q4 16 4 32zM245 499q0 -28 29 -46l30 126q-45 -8 -56 -57z" />
    <glyph glyph-name="percent" unicode="%" horiz-adv-x="675" 
d="M55 24l479 667h73q15 0 15 -11q0 -7 -5 -15l-478 -665h-72q-16 0 -16 12q2 9 4 12zM460 -9q-61 0 -91.5 27t-30.5 89q0 25 4 45l6 30q24 101 64 139t125 38q61 0 91 -31t30 -87q0 -32 -9 -71q-27 -107 -66 -143t-123 -36zM471 58q35 0 55.5 23.5t37.5 94.5q11 42 11 66
q0 50 -49 50q-37 0 -56.5 -21.5t-35.5 -91.5q-5 -21 -8 -39.5t-3 -33.5q0 -48 48 -48zM132 333q-61 0 -91.5 27t-30.5 89q0 25 4 45l6 30q24 101 64 139t125 38q61 0 91 -31t30 -87q0 -32 -9 -71q-27 -107 -66 -143t-123 -36zM143 400q35 0 55.5 23.5t37.5 94.5q11 42 11 66
q0 50 -49 50q-37 0 -56.5 -21.5t-35.5 -91.5q-5 -21 -8 -39.5t-3 -33.5q0 -48 48 -48z" />
    <glyph glyph-name="ampersand" unicode="&#x26;" 
d="M166 385q-39 41 -39 109q0 16 1 25t6 27q21 78 74.5 111t147.5 33q78 0 128.5 -38.5t50.5 -99.5q0 -29 -14 -63h-120q4 7 6 17t2 18q0 56 -69 56q-68 0 -86 -53q-4 -11 -4 -24q0 -16 7.5 -32t22.5 -37l108 -144l19 63q9 29 27 46t47 17h153l-10 -46q-7 -31 -20.5 -42.5
t-44.5 -11.5q-22 0 -32 -18q-5 -9 -22 -62l-21 -68l27 -34q14 -17 22.5 -20.5t38.5 -3.5h42l-13 -57q-7 -33 -20 -43t-46 -10h-34q-32 0 -46 17l-27 31q-29 -34 -69 -43.5t-131 -9.5q-98 0 -154.5 43.5t-56.5 122.5q0 31 9 67q19 75 52 111t88 46zM347 152l-129 164
q-23 -12 -34 -30.5t-21 -59.5q-6 -24 -6 -43q0 -73 94 -73q48 0 64.5 8.5t31.5 33.5z" />
    <glyph glyph-name="quotesingle" unicode="'" horiz-adv-x="294" 
d="M98 418v271h98v-271h-98z" />
    <glyph glyph-name="parenleft" unicode="(" horiz-adv-x="369" 
d="M329 762h87q-54 -85 -83 -134q-55 -92 -90 -167q-45 -96 -58 -162q-9 -57 -14 -105.5t-5 -85.5q0 -51 8 -94.5t30 -85.5h-90q-72 129 -72 266q0 138 72.5 281.5t214.5 286.5z" />
    <glyph glyph-name="parenright" unicode=")" horiz-adv-x="385" 
d="M63 -72l-86 -1q50 79 82 134q56 95 90 168q45 97 58 162q17 109 17 188q0 68 -9.5 109.5t-26.5 72.5l90 1q70 -127 70 -267q0 -138 -72 -281.5t-213 -285.5z" />
    <glyph glyph-name="asterisk" unicode="*" horiz-adv-x="389" 
d="M338 606l24 -73l-105 -32l69 -97l-63 -44l-68 91l-69 -91l-63 44l68 97l-104 32l23 73l102 -34v119h85v-119z" />
    <glyph glyph-name="plus" unicode="+" horiz-adv-x="584" 
d="M236 309v197h112v-197h196v-112h-196v-197h-112v197h-196v112h196z" />
    <glyph glyph-name="comma" unicode="," horiz-adv-x="172" 
d="M40 98h86q33 0 33 -24q0 -11 -2 -18l-18 -78q-13 -58 -70 -58h-50q-16 0 -11 21l6 25h50q18 0 22 17l4 17h-34q-31 0 -31 26q0 10 2 17z" />
    <glyph glyph-name="hyphen" unicode="-" horiz-adv-x="584" 
d="M544 207h-504v112h504v-112z" />
    <glyph glyph-name="period" unicode="." horiz-adv-x="161" 
d="M135 0h-83q-34 0 -34 27q0 12 2 19l12 52h83q35 0 35 -25q0 -10 -2 -17z" />
    <glyph glyph-name="slash" unicode="/" horiz-adv-x="521" 
d="M-43 24l479 667h108q15 0 15 -11q0 -7 -5 -15l-478 -665h-107q-16 0 -16 12q2 9 4 12z" />
    <glyph glyph-name="zero" unicode="0" 
d="M26 349q44 191 106 264q74 87 224 87q220 0 220 -205q0 -30 -4.5 -65t-14.5 -78q-47 -202 -111 -276q-72 -83 -221 -83q-115 0 -168 48t-53 148q0 64 22 160zM169 352q-24 -98 -24 -152q0 -49 23 -71t75 -22q69 0 103.5 52t70.5 202q17 73 17 118q0 107 -98 107
q-67 0 -102.5 -50.5t-64.5 -183.5z" />
    <glyph glyph-name="one" unicode="1" 
d="M173 61l115 492q3 9 3 15q0 12 -15 12h-5q-38 0 -38 25q0 8 3 20l15 65h158q18 0 26.5 -12t8.5 -30q0 -5 -2 -15l-133 -569q-1 -5 -1.5 -10.5t-0.5 -7.5q0 -25 25 -28l-4 -19h-118q-39 0 -39 42q0 13 2 20z" />
    <glyph glyph-name="two" unicode="2" 
d="M210 690h204q78 0 118 -39q37 -36 37 -99q0 -14 -1 -21.5t-4 -25.5q-16 -67 -53 -109q-28 -31 -83 -62l-153 -87q-52 -30 -74 -58.5t-33 -78.5h228q32 0 44 5t25 26h19l-22 -93q-11 -48 -62 -48h-395q15 119 56 199q47 93 130 143l170 95q61 35 71 78q3 12 3 21
q0 22 -18.5 33t-59.5 11h-127q-38 0 -38 25q0 8 3 20z" />
    <glyph glyph-name="three" unicode="3" 
d="M272 321h-56q-38 0 -38 25l3 20l15 65h101q43 0 64.5 15t31.5 58l4 27q0 49 -71 49h-113q-38 0 -38 26l3 20l15 65h161q86 0 132 -39t46 -105q0 -8 -0.5 -15t-4.5 -29q-12 -53 -34 -82q-28 -36 -74 -41q43 -16 63.5 -49.5t20.5 -79.5q0 -30 -8 -65q-24 -102 -79 -144
t-169 -42h-126q-46 0 -64.5 10.5t-18.5 36.5q0 16 6 37l17 66h18q4 -23 15.5 -29t42.5 -6h83q70 0 97.5 19.5t41.5 76.5q3 9 4 18.5t1 20.5q0 35 -22 53t-70 18z" />
    <glyph glyph-name="four" unicode="4" 
d="M269 62l26 110h-237q-13 0 -24.5 10.5t-11.5 24.5l1 10l15 65l376 408h90q15 0 25.5 -9.5t10.5 -25.5l-1 -10l-83 -363h93l-14 -57q-8 -33 -21 -43t-45 -10h-39l-25 -107q-1 -5 -1.5 -10.5t-0.5 -7.5q0 -25 25 -28l-4 -19h-118q-39 0 -39 42q0 13 2 20zM164 282h155
l50 216z" />
    <glyph glyph-name="five" unicode="5" 
d="M130 115h126q49 0 69 12.5t30 51.5l19 78q6 24 6 39q0 46 -60 46h-207l70 294q7 31 21.5 42.5t47.5 11.5h289l-13 -56q-7 -31 -20.5 -42.5t-44.5 -11.5h-159l-30 -128h98q78 0 116 -35q35 -32 35 -93q0 -19 -1 -29t-6 -31l-29 -128q-18 -72 -60.5 -104t-114.5 -32h-203
q-31 0 -46.5 9.5t-15.5 33.5q0 14 4 29l18 78h18q4 -35 43 -35z" />
    <glyph glyph-name="six" unicode="6" 
d="M218 437h135q80 0 129.5 -40.5t49.5 -116.5q0 -27 -8 -62q-32 -133 -91.5 -178.5t-194.5 -45.5q-206 0 -206 180q0 41 12 92l36 157q36 155 90.5 211.5t165.5 56.5h226l-13 -57q-7 -30 -20.5 -41.5t-44.5 -11.5h-146q-42 0 -69.5 -23.5t-36.5 -62.5zM194 327l-25 -103
q-6 -24 -6 -43q0 -72 88 -72q65 0 90 21t42 88q3 9 4 19t1 20q0 70 -89 70h-105z" />
    <glyph glyph-name="seven" unicode="7" 
d="M147 690h407l-12 -55q-3 -18 -11 -32q-10 -14 -15 -23l-313 -513q-7 -16 -7 -23q0 -11 6 -18t19 -7l-5 -19h-146q-37 0 -37 28q0 17 12 37l318 515h-196q-38 0 -38 25q0 8 3 20z" />
    <glyph glyph-name="eight" unicode="8" 
d="M166 385q-45 26 -45 98q0 18 5 43q19 87 65 122q55 42 177 42q194 0 194 -132q0 -22 -6 -48q-15 -64 -37 -91.5t-75 -42.5q40 -14 58 -42.5t18 -70.5q0 -31 -7 -63q-24 -114 -77 -157q-59 -48 -190 -48q-230 0 -230 158q0 26 4 45.5t6 29.5q19 75 55 113q33 34 85 44z
M163 226q-8 -32 -8 -52q0 -34 22.5 -49t73.5 -15q55 0 79 20q28 23 43 89q6 26 6 44q0 33 -21 48.5t-69 15.5q-61 0 -86.5 -20t-39.5 -81zM253 510q-3 -14 -3 -25q0 -48 68 -48q52 0 70.5 13t27.5 50q5 22 5 35q0 23 -15 34t-54 11q-50 0 -69.5 -14.5t-29.5 -55.5z" />
    <glyph glyph-name="nine" unicode="9" 
d="M364 253h-129q-87 0 -131.5 37t-44.5 117q0 38 10 84q28 124 93 168q56 37 180 37q111 0 161 -38t50 -120q0 -48 -13 -104l-37 -164q-37 -166 -90 -220q-49 -50 -160 -50h-172q-31 0 -46.5 9.5t-15.5 33.5q0 14 4 29l18 78h18q4 -35 43 -35h133q52 0 79 23t41 79z
M389 363l14 57q15 62 15 92q0 39 -21.5 56.5t-68.5 17.5q-62 0 -88.5 -24t-38.5 -82q-4 -20 -6 -32.5t-2 -26.5q0 -35 21.5 -46.5t76.5 -11.5h98z" />
    <glyph glyph-name="colon" unicode=":" horiz-adv-x="217" 
d="M189 201h-83q-34 0 -34 27q0 12 2 19l12 52h83q35 0 35 -25q0 -10 -2 -17zM141 0h-83q-34 0 -34 27q0 12 2 19l12 52h83q35 0 35 -25q0 -10 -2 -17z" />
    <glyph glyph-name="semicolon" unicode=";" horiz-adv-x="217" 
d="M189 201h-83q-34 0 -34 27q0 12 2 19l12 52h83q35 0 35 -25q0 -10 -2 -17zM38 98h86q33 0 33 -24q0 -11 -2 -18l-18 -78q-13 -58 -70 -58h-50q-16 0 -11 21l6 25h50q18 0 22 17l4 17h-34q-31 0 -31 26q0 10 2 17z" />
    <glyph glyph-name="less" unicode="&#x3c;" horiz-adv-x="584" 
d="M546 100v-108l-508 216v90l508 216v-108l-363 -153z" />
    <glyph glyph-name="equal" unicode="=" horiz-adv-x="584" 
d="M544 419v-112h-504v112h504zM544 199v-112h-504v112h504z" />
    <glyph glyph-name="greater" unicode="&#x3e;" horiz-adv-x="584" 
d="M38 100l363 153l-363 153v108l508 -216v-90l-508 -216v108z" />
    <glyph glyph-name="question" unicode="?" horiz-adv-x="541" 
d="M179 690h204q76 0 117 -40q38 -37 38 -99q0 -19 -5 -46q-16 -71 -50.5 -113t-85.5 -60l-128 -47q-49 -18 -67 -47q-14 -23 -29 -93h-124q28 119 57 168q35 59 102 82l122 42q30 10 47.5 30t23.5 48q3 12 3 21q0 22 -18.5 33t-59.5 11h-127q-38 0 -38 25q0 8 3 20zM145 0
h-83q-34 0 -34 27q0 12 2 19l12 52h83q35 0 35 -25q0 -10 -2 -17z" />
    <glyph glyph-name="at" unicode="@" horiz-adv-x="975" 
d="M581 376q0 37 -22 61t-58 24q-49 0 -83 -43t-34 -92q0 -40 20.5 -64.5t57.5 -24.5q51 0 85 43t34 96zM611 493l13 53h88l-58 -255l-3 -15q-4 -19 -4 -27q0 -21 15 -21q42 0 77.5 49.5t35.5 126.5q0 120 -76 186.5t-197 66.5q-127 0 -206 -85t-79 -215q0 -133 83.5 -214.5
t215.5 -81.5q61 0 115 21.5t95 59.5h89q-52 -77 -131.5 -119t-173.5 -42q-164 0 -278 108t-114 270q0 159 113.5 268.5t272.5 109.5q142 0 244 -84q108 -89 108 -225q0 -142 -101 -226q-78 -65 -154 -65q-23 0 -40 14t-17 39q-23 -23 -51 -38t-56 -15q-65 0 -113 51.5
t-48 122.5q0 98 58 170q62 77 156 77q40 0 69.5 -15t51.5 -50z" />
    <glyph glyph-name="A" unicode="A" horiz-adv-x="556" 
d="M525 0h-109q-49 0 -49 53l-3 122h-203l-60 -100q-13 -22 -13 -35q0 -21 27 -21l-5 -19h-128q-31 0 -31 21q0 12 9 27l340 566q11 19 11 31q0 21 -26 28l5 18h143q23 0 36.5 -13.5t13.5 -35.5l14 -575q0 -27 5.5 -35.5t26.5 -12.5zM357 500l-131 -215h136z" />
    <glyph glyph-name="B" unicode="B" horiz-adv-x="612" 
d="M275 580l-34 -149h101q44 0 66.5 15t32.5 57l4 27q0 50 -69 50h-101zM216 321l-50 -211h113q54 0 82.5 23t42.5 78q4 16 4 33q0 38 -24.5 57.5t-66.5 19.5h-101zM306 0h-250q-39 0 -39 42q0 13 2 20l133 564q1 5 1.5 10.5t0.5 7.5q0 25 -24 28l4 19h265q85 0 131.5 -39
t46.5 -104q0 -17 -1 -24t-4 -21q-12 -53 -33 -81q-26 -34 -75 -42q41 -18 61 -45q25 -33 25 -84q0 -24 -8 -59q-24 -101 -79.5 -146.5t-156.5 -45.5z" />
    <glyph glyph-name="C" unicode="C" horiz-adv-x="539" 
d="M327 -5h-145q-90 0 -130 51q-35 44 -35 130q0 38 7 84.5t20 100.5q44 188 113 262q63 68 176 68h196l-13 -57q-7 -30 -20.5 -41.5t-45.5 -11.5h-86q-84 0 -120 -50q-29 -40 -58 -165t-29 -174q0 -47 21.5 -64.5t74.5 -17.5h106q36 0 45 3q17 6 34 28h19l-16 -69
q-10 -42 -38.5 -59.5t-75.5 -17.5z" />
    <glyph glyph-name="D" unicode="D" horiz-adv-x="616" 
d="M128 691h265q106 0 157.5 -52t51.5 -152q0 -35 -4 -66t-15 -76q-50 -210 -111.5 -277.5t-204.5 -67.5h-217q-39 0 -39 42q0 13 2 20l133 564q1 5 1.5 10.5t0.5 7.5q0 25 -24 28zM270 581l-110 -471h100q81 0 113 41.5t69 193.5q20 82 20 131q0 56 -25.5 80.5t-81.5 24.5
h-85z" />
    <glyph glyph-name="E" unicode="E" horiz-adv-x="537" 
d="M132 691h404l-12 -57q-6 -30 -19.5 -41.5t-45.5 -11.5h-185l-35 -149h212l-12 -57q-6 -30 -19.5 -41.5t-45.5 -11.5h-105q-29 0 -44.5 -10t-22.5 -39l-39 -163h191q32 0 44 5t25 26h19l-22 -93q-11 -48 -62 -48h-304q-39 0 -39 42q0 13 2 20l133 564q1 5 1.5 10.5
t0.5 7.5q0 25 -24 28z" />
    <glyph glyph-name="F" unicode="F" horiz-adv-x="503" 
d="M127 691l407 -1l-12 -57q-6 -30 -19.5 -41.5t-45.5 -11.5h-188l-35 -148h224l-12 -57q-6 -30 -19.5 -41.5t-45.5 -11.5h-110q-36 0 -54 -16.5t-26 -54.5l-43 -186q-1 -5 -1.5 -10.5t-0.5 -7.5q0 -25 25 -28l-4 -19h-118q-39 0 -39 42q0 13 2 20l133 564q1 5 1.5 10.5
t0.5 7.5q0 25 -24 28z" />
    <glyph glyph-name="G" unicode="G" horiz-adv-x="606" 
d="M333 691h222l-13 -57q-7 -30 -20.5 -41.5t-45.5 -11.5h-112q-84 0 -120 -50q-29 -40 -59 -170q-26 -110 -26 -162q0 -50 22.5 -68.5t75.5 -18.5q58 0 80.5 20t35.5 73l27 116h-59q-37 0 -37 29q0 4 2 16l15 65h172q30 0 43 -9t13 -29q0 -7 -4 -27l-45 -198
q-22 -98 -69 -135.5t-143 -37.5h-92q-95 0 -138 55q-38 48 -38 139q0 71 24 172q44 188 113 262q63 68 176 68z" />
    <glyph glyph-name="H" unicode="H" horiz-adv-x="643" 
d="M424 322h-216l-60 -257q-1 -5 -1.5 -10.5t-0.5 -7.5q0 -25 25 -28l-4 -19h-118q-39 0 -39 42q0 13 2 20l133 564q1 5 1.5 10.5t0.5 7.5q0 25 -24 28l4 19h118q38 0 38 -41q0 -9 -3 -21l-46 -197h216l46 194q1 5 1.5 10.5t0.5 7.5q0 25 -24 28l4 19h118q38 0 38 -41
q0 -9 -3 -21l-132 -564q-1 -5 -1.5 -10.5t-0.5 -7.5q0 -25 25 -28l-4 -19h-118q-39 0 -39 42q0 13 2 20z" />
    <glyph glyph-name="I" unicode="I" horiz-adv-x="297" 
d="M13 62l133 564q1 5 1.5 10.5t0.5 7.5q0 25 -24 28l4 19h118q38 0 38 -41q0 -9 -3 -21l-132 -564q-1 -5 -1.5 -10.5t-0.5 -7.5q0 -25 25 -28l-4 -19h-118q-39 0 -39 42q0 13 2 20z" />
    <glyph glyph-name="J" unicode="J" horiz-adv-x="414" 
d="M168 0h-150q-32 0 -47 9.5t-15 34.5q0 13 4 28l18 78h18q4 -35 43 -35h58q28 0 39.5 10.5t19.5 43.5l88 373q2 7 2 17q0 21 -30 21h-37q-38 0 -38 25q0 8 3 20l15 65h209q35 0 35 -34q0 -10 -3 -22l-126 -535q-12 -54 -36 -76.5t-70 -22.5z" />
    <glyph glyph-name="K" unicode="K" horiz-adv-x="598" 
d="M12 62l133 564q1 5 1.5 10.5t0.5 7.5q0 25 -24 28l4 19h118q38 0 38 -41q0 -9 -3 -21l-48 -201l215 203q12 12 12 22q0 16 -20 19l3 19h144q30 0 30 -21q0 -12 -13 -25l-235 -232l99 -276q6 -18 13.5 -22.5t28.5 -4.5h30l-13 -57q-7 -33 -20 -43t-46 -10h-34
q-31 0 -41.5 9.5t-23.5 46.5l-96 269l-72 -67l-45 -193q-1 -5 -1.5 -10.5t-0.5 -7.5q0 -25 25 -28l-4 -19h-118q-39 0 -39 42q0 13 2 20z" />
    <glyph glyph-name="L" unicode="L" horiz-adv-x="444" 
d="M158 110h176q32 0 44 5t25 26h19l-22 -93q-11 -48 -62 -48h-290q-39 0 -39 42q0 13 2 20l133 564q1 5 1.5 10.5t0.5 7.5q0 25 -24 28l4 19h118q38 0 38 -41q0 -9 -3 -21z" />
    <glyph glyph-name="M" unicode="M" horiz-adv-x="770" 
d="M510 691h146q26 0 38.5 -15.5t12.5 -43.5v-581q0 -17 6 -23t24 -9l-5 -19h-119q-36 0 -36 43v408l-195 -451h-72q-31 0 -40.5 9.5t-13.5 46.5l-38 376l-131 -366q-7 -21 -7 -28q0 -16 23 -19l-5 -19h-112q-27 0 -27 20q0 9 4 20l211 577q5 17 5 26q0 22 -27 29l4 19h113
q28 0 39.5 -12t13.5 -37l43 -414l163 389q6 15 6 26q0 23 -28 29z" />
    <glyph glyph-name="N" unicode="N" horiz-adv-x="636" 
d="M265 652l156 -403l91 377q1 5 1.5 10.5t0.5 7.5q0 25 -24 28l4 19h94q38 0 38 -41q0 -9 -3 -21l-147 -629h-69q-25 0 -35 24l-160 410l-86 -369q-1 -5 -1.5 -10.5t-0.5 -7.5q0 -25 25 -28l-4 -19h-95q-39 0 -39 42q0 13 2 20l133 564q1 5 1.5 10.5t0.5 7.5q0 25 -24 28
l4 19h90q36 0 47 -39z" />
    <glyph glyph-name="O" unicode="O" horiz-adv-x="615" 
d="M42 349q44 191 106 264q74 87 224 87q220 0 220 -205q0 -30 -4.5 -65t-14.5 -78q-47 -202 -111 -276q-72 -83 -221 -83q-115 0 -168 48t-53 148q0 64 22 160zM185 352q-24 -98 -24 -152q0 -49 23 -71t75 -22q69 0 103.5 52t70.5 202q17 73 17 118q0 107 -98 107
q-67 0 -102.5 -50.5t-64.5 -183.5z" />
    <glyph glyph-name="P" unicode="P" horiz-adv-x="581" 
d="M221 364h86q66 0 92.5 20.5t41.5 82.5q3 14 5 25.5t2 21.5q0 34 -21.5 50.5t-68.5 16.5h-87zM194 254l-44 -189q-1 -5 -1.5 -10.5t-0.5 -7.5q0 -25 25 -28l-4 -19h-118q-39 0 -39 42q0 13 2 20l133 564q1 5 1.5 10.5t0.5 7.5q0 25 -24 28l4 19h280q84 0 131.5 -44.5
t47.5 -122.5q0 -32 -9 -71q-29 -124 -91 -165q-52 -34 -178 -34h-116z" />
    <glyph glyph-name="Q" unicode="Q" horiz-adv-x="618" 
d="M469 -40l-16 -77q-5 -29 -35 -29h-67q-26 0 -37 8.5t-20 35.5l-31 95h-20q-115 0 -168 48t-53 148q0 64 22 160q44 191 106 264q74 87 224 87q220 0 220 -205q0 -30 -4.5 -65t-14.5 -78q-36 -156 -76 -227q-46 -82 -125 -112l7 -20q7 -19 13 -26t21 -7h54zM187 352
q-11 -44 -18 -85.5t-7 -66.5q0 -41 15.5 -62.5t48.5 -27.5l-19 60h113l15 -42q53 39 100 233q17 73 17 118q0 107 -98 107q-67 0 -102.5 -50.5t-64.5 -183.5z" />
    <glyph glyph-name="R" unicode="R" horiz-adv-x="584" 
d="M272 580l-45 -193h99q56 0 79.5 21t36.5 74q4 18 4.5 21.5t0.5 15.5q0 32 -20.5 46.5t-64.5 14.5h-90zM259 277h-57l-51 -213q-1 -5 -1.5 -10.5t-0.5 -7.5q0 -25 25 -28l-4 -19h-118q-39 0 -39 42q0 13 2 20l133 564q1 5 1.5 10.5t0.5 7.5q0 25 -24 28l4 19h273
q91 0 137 -46q42 -42 42 -111q0 -31 -7 -58q-24 -100 -67 -141q-37 -35 -113 -46l47 -151q6 -18 13.5 -22.5t28.5 -4.5h30l-13 -57q-7 -33 -20 -43t-46 -10h-35q-31 0 -41 9t-24 47z" />
    <glyph glyph-name="S" unicode="S" horiz-adv-x="553" 
d="M315 691h212l-13 -57q-7 -30 -20.5 -41.5t-44.5 -11.5h-115q-39 0 -58.5 -13t-27.5 -46l-3 -23q0 -17 9.5 -30t33.5 -23l96 -42q51 -22 74 -51q27 -34 27 -88q0 -23 -1.5 -34t-6.5 -32q-24 -105 -73 -152t-143 -47h-185q-31 0 -46.5 9.5t-15.5 33.5q0 14 4 29l18 78h18
q4 -35 43 -35h128q57 0 83 23q20 18 31 65q4 16 4 32q0 22 -13.5 37.5t-45.5 29.5l-78 33q-46 20 -71 54t-25 85q0 25 8 62q20 84 66.5 119.5t130.5 35.5z" />
    <glyph glyph-name="T" unicode="T" horiz-adv-x="489" 
d="M121 690h345q32 0 44 5t25 26h19l-22 -93q-11 -48 -62 -48h-111l-121 -515q-1 -5 -1.5 -10.5t-0.5 -7.5q0 -25 25 -28l-4 -19h-118q-39 0 -39 42q0 13 2 20l122 518h-99q-32 0 -44 -5t-25 -26h-19l22 93q11 48 62 48z" />
    <glyph glyph-name="U" unicode="U" horiz-adv-x="635" 
d="M255 111q55 0 84.5 22t43.5 80l98 413q1 5 1.5 10.5t0.5 7.5q0 25 -24 28l4 19h118q38 0 38 -41q0 -9 -3 -21l-102 -436q-27 -113 -79 -153q-60 -45 -205 -45q-205 0 -205 152q0 27 4 46.5t6 29.5l94 403q1 5 1.5 10.5t0.5 7.5q0 25 -24 28l4 19h118q38 0 38 -41
q0 -9 -3 -21l-94 -402q-8 -34 -8 -54q0 -33 20.5 -47.5t72.5 -14.5z" />
    <glyph glyph-name="V" unicode="V" horiz-adv-x="559" 
d="M30 691h120q40 0 40 -39l40 -483l220 455q7 16 7 25q0 18 -23 23l4 19h121q29 0 29 -19q0 -11 -7 -24l-313 -648h-110q-42 0 -42 37l-55 602q-3 33 -35 33z" />
    <glyph glyph-name="W" unicode="W" horiz-adv-x="845" 
d="M731 691h126q26 0 26 -19q0 -10 -8 -28l-312 -644h-92q-20 0 -32.5 11.5t-12.5 28.5l2 438l-230 -478h-93q-42 0 -42 42v587q0 38 -30 43l4 19h121q20 0 27.5 -13t7.5 -36v-406l220 455h145v-455l185 384q8 18 8 29q0 20 -24 23z" />
    <glyph glyph-name="X" unicode="X" horiz-adv-x="555" 
d="M437 691h131q33 0 33 -22q0 -11 -11 -25l-216 -271l117 -333q7 -13 11.5 -17t21.5 -4l-4 -19h-120q-33 0 -45 37l-72 221l-163 -201q-11 -13 -11 -21q0 -14 26 -17l-5 -19h-127q-32 0 -32 25q0 13 14 32l252 312l-96 256q-10 26 -17.5 35t-25.5 12l4 19h113q25 0 36 -8.5
t18 -28.5l60 -176l115 149q11 16 11 26q0 16 -22 19z" />
    <glyph glyph-name="Y" unicode="Y" horiz-adv-x="490" 
d="M23 691h112q22 0 32 -7t15 -29l63 -243l141 213q10 16 10 26q0 15 -23 21l5 19h128q29 0 29 -19q0 -11 -11 -28l-244 -370l-49 -209q-1 -5 -1.5 -10.5t-0.5 -7.5q0 -25 25 -28l-4 -19h-118q-39 0 -39 42q0 13 2 20l53 221l-96 354q-4 13 -7 19q-8 14 -27 16z" />
    <glyph glyph-name="Z" unicode="Z" horiz-adv-x="539" 
d="M558 691l-21 -87q-2 -9 -6 -16t-20 -28l-349 -450h187q32 0 44 5t25 26h19l-22 -93q-11 -48 -62 -48h-344q-22 0 -31.5 9.5t-9.5 25.5l1 10l11 45l385 491h-192q-38 0 -38 25q0 8 3 20l15 65h405z" />
    <glyph glyph-name="bracketleft" unicode="[" horiz-adv-x="333" 
d="M185 638v-646h124v-96h-246v838h246v-96h-124z" />
    <glyph glyph-name="backslash" unicode="\" horiz-adv-x="521" 
d="M555 24l-479 667h-108q-15 0 -15 -11q0 -7 5 -15l478 -665h107q16 0 16 12q-2 9 -4 12z" />
    <glyph glyph-name="bracketright" unicode="]" horiz-adv-x="349" 
d="M143 -8v646h-124v96h246v-838h-246v96h124z" />
    <glyph glyph-name="asciicircum" unicode="^" horiz-adv-x="584" 
d="M170 316h-109l180 375h100l180 -375h-110l-120 263z" />
    <glyph glyph-name="underscore" unicode="_" horiz-adv-x="556" 
d="M556 -95h-556v50h556v-50z" />
    <glyph glyph-name="grave" unicode="`" horiz-adv-x="333" 
d="M124 561l-147 146h154l94 -146h-101z" />
    <glyph glyph-name="a" unicode="a" horiz-adv-x="522" 
d="M305 124l32 135h-88q-44 0 -67 -20t-33 -62q-6 -24 -6 -39q0 -24 16.5 -34t57.5 -10q28 0 49 8t39 22zM172 540h226q102 0 102 -86q0 -20 -6 -46l-82 -349q-3 -12 -3 -19q0 -18 25 -24l-3 -16h-97q-25 0 -35.5 9.5t-10.5 29.5q0 13 5 33h-9l-38 -56q-18 -13 -35.5 -18
t-64.5 -5q-60 0 -93 24q-42 30 -42 96q0 27 9 65q24 98 70 137.5t141 39.5h90q21 0 31.5 8.5t17.5 34.5q4 20 4 24q0 22 -33 22h-145q-21 0 -30 5.5t-9 22.5q0 7 3 18z" />
    <glyph glyph-name="b" unicode="b" horiz-adv-x="541" 
d="M276 627l-34 -145h9l37 48q15 11 34 15t48 4q149 0 149 -167q0 -48 -14 -113q-36 -163 -98 -219q-55 -50 -178 -50h-164q-25 0 -35.5 9.5t-10.5 29.5q0 13 5 33l132 564q2 12 2 17q0 18 -22 23l4 15h98q22 0 32 -9t10 -26q0 -7 -4 -29zM152 100h55q77 0 109 33t59 144
q14 61 14 94q0 77 -74 77q-43 0 -67.5 -23.5t-39.5 -87.5z" />
    <glyph glyph-name="c" unicode="c" horiz-adv-x="482" 
d="M308 444q-53 0 -82 -34q-33 -38 -56 -138q-17 -73 -17 -108q0 -40 20 -55t67 -15h63q39 0 56 4.5t32 21.5h14l-13 -54q-10 -42 -37.5 -57.5t-95.5 -15.5h-64q-82 0 -124 36q-47 40 -47 127q0 44 14 108q36 156 107 224q54 52 125 52h192l-15 -63q-7 -33 -44 -33h-95z" />
    <glyph glyph-name="d" unicode="d" horiz-adv-x="556" 
d="M397 444h-64q-60 0 -95 -36q-38 -40 -61 -134q-9 -39 -14 -68t-5 -49q0 -35 15 -49t49 -14q52 0 78 23t40 84zM418 540l24 96q2 12 2 17q0 18 -22 23l4 15h98q22 0 32 -9t10 -26q0 -7 -4 -29l-134 -568q-3 -12 -3 -19q0 -18 25 -24l-3 -16h-97q-25 0 -35.5 9.5
t-10.5 29.5q0 13 5 33h-7l-44 -56q-19 -12 -40.5 -17.5t-60.5 -5.5q-131 0 -131 146q0 57 19 136q37 158 119 219q62 46 164 46h90z" />
    <glyph glyph-name="e" unicode="e" horiz-adv-x="511" 
d="M402 248h-238l-8 -44t-4 -43q0 -35 18.5 -51t64.5 -16h92q39 0 56 4.5t32 21.5h14l-13 -54q-10 -42 -37.5 -57.5t-95.5 -15.5h-79q-87 0 -129 32q-50 38 -50 130q0 56 17 127q32 138 92 196q64 62 182 62q181 0 181 -138q0 -15 -3 -32.5t-4 -25.5q-13 -60 -30 -78
t-58 -18zM369 344q7 28 7 49q0 27 -16.5 39t-54.5 12q-53 0 -80 -28q-20 -21 -35 -72h179z" />
    <glyph glyph-name="f" unicode="f" horiz-adv-x="396" 
d="M21 72l88 372h-45l18 76q25 5 38 17t20 40l2 8q15 61 48 84t99 23h147l-14 -57q-7 -33 -47 -33h-72q-35 0 -43 -34l-7 -28h135l-15 -63q-7 -33 -44 -33h-68q-30 0 -38 -33l-83 -352q-3 -12 -3 -19q0 -18 25 -24l-3 -16h-97q-25 0 -35.5 9.5t-10.5 29.5q0 13 5 33z" />
    <glyph glyph-name="g" unicode="g" horiz-adv-x="559" 
d="M314 93h-9l-41 -50q-36 -23 -107 -23q-67 0 -98 31t-31 99q0 53 18 131q32 136 108 200q70 59 179 59h159q40 0 40 -35q0 -9 -3 -21l-110 -464q-18 -79 -68 -121q-54 -46 -145 -46h-118q-46 0 -69 13t-23 47q0 15 4 30l11 45h12q10 -20 28 -27t53 -7h72q56 0 86 21t44 77
zM397 444h-64q-117 0 -155 -163q-16 -67 -16 -103q0 -33 15 -45t50 -12q52 0 78 23t40 84z" />
    <glyph glyph-name="h" unicode="h" horiz-adv-x="546" 
d="M275 627l-35 -148h9l35 42q21 16 42 22t68 6q68 0 99.5 -25.5t31.5 -78.5q0 -26 -8 -63l-76 -323q-3 -12 -3 -19q0 -18 25 -24l-3 -16h-97q-25 0 -35.5 9.5t-10.5 29.5q0 13 5 33l66 281q7 29 7 50q0 26 -16.5 35.5t-56.5 9.5q-48 0 -74.5 -27t-37.5 -75l-67 -287
q-3 -12 -3 -19q0 -18 25 -24l-3 -16h-97q-25 0 -35.5 9.5t-10.5 29.5q0 13 5 33l131 564q2 12 2 17q0 18 -22 23l4 15h98q22 0 32 -9t10 -26q0 -7 -4 -29z" />
    <glyph glyph-name="i" unicode="i" horiz-adv-x="272" 
d="M243 476l-98 -417q-3 -12 -3 -19q0 -18 25 -24l-3 -16h-97q-25 0 -35.5 9.5t-10.5 29.5q0 13 5 33l97 413q2 12 2 17q0 18 -22 23l4 15h98q22 0 32 -9t10 -26q0 -7 -4 -29zM271 595h-79q-35 0 -35 24l2 16l14 56h79q35 0 35 -24l-2 -16z" />
    <glyph glyph-name="j" unicode="j" horiz-adv-x="277" 
d="M251 476l-115 -494q-16 -68 -49.5 -98.5t-98.5 -30.5h-65q-42 0 -60 10t-18 39q0 6 4 28l12 53h12q11 -29 55 -29h17q34 0 49 12q19 15 30 63l107 456q2 12 2 17q0 18 -22 23l4 15h98q22 0 32 -9t10 -26q0 -7 -4 -29zM278 595h-79q-35 0 -35 24l2 16l14 56h79
q35 0 35 -24l-2 -16z" />
    <glyph glyph-name="k" unicode="k" horiz-adv-x="527" 
d="M24 72l130 564q2 12 2 17q0 18 -22 23l4 15h98q22 0 32 -9t10 -26q0 -7 -4 -29l-63 -275l142 136q13 12 13 22q0 11 -17 14l5 16h111q26 0 26 -21q0 -14 -14 -28l-143 -139h31q54 0 83 -25t29 -71v-17q-3 -12 -4 -18l-38 -162q-3 -12 -3 -19q0 -18 25 -24l-3 -16h-97
q-25 0 -35.5 9.5t-10.5 29.5q0 13 5 33l29 122q4 15 4 29q0 39 -51 39h-108l-47 -203q-3 -12 -3 -19q0 -18 25 -24l-3 -16h-97q-25 0 -35.5 9.5t-10.5 29.5q0 13 5 33z" />
    <glyph glyph-name="l" unicode="l" horiz-adv-x="270" 
d="M23 72l133 564q2 12 2 17q0 18 -22 23l4 15h98q22 0 32 -9t10 -26q0 -7 -4 -29l-134 -568q-3 -12 -3 -19q0 -18 25 -24l-3 -16h-97q-25 0 -35.5 9.5t-10.5 29.5q0 13 5 33z" />
    <glyph glyph-name="m" unicode="m" horiz-adv-x="817" 
d="M208 352l-69 -293q-3 -12 -3 -19q0 -18 25 -24l-3 -16h-97q-25 0 -35.5 9.5t-10.5 29.5q0 13 5 33l97 413q2 12 2 17q0 18 -22 23l4 15h98q22 0 32 -9t10 -26q0 -7 -4 -29h7l38 48q17 12 43.5 18.5t72.5 6.5q49 0 74.5 -17.5t35.5 -56.5l42 49q22 14 39 18q27 7 82 7
q59 0 87 -29t28 -81q0 -29 -7 -57l-76 -323q-3 -12 -3 -19q0 -18 25 -24l-3 -16h-97q-25 0 -35.5 9.5t-10.5 29.5q0 13 5 33l72 306q4 15 4 28q0 42 -58 42q-50 0 -74.5 -20t-37.5 -76l-69 -293q-3 -12 -3 -19q0 -18 25 -24l-3 -16h-97q-25 0 -35.5 9.5t-10.5 29.5
q0 13 5 33l72 306q4 15 4 28q0 42 -58 42q-50 0 -74.5 -20t-37.5 -76z" />
    <glyph glyph-name="n" unicode="n" horiz-adv-x="542" 
d="M208 348l-68 -289q-3 -12 -3 -19q0 -18 25 -24l-3 -16h-97q-25 0 -35.5 9.5t-10.5 29.5q0 13 5 33l97 413q2 12 2 17q0 18 -22 23l4 15h98q42 0 42 -34q0 -7 -4 -27h8l35 42q21 16 42 22t68 6q68 0 99.5 -25.5t31.5 -78.5q0 -26 -8 -63l-76 -323q-3 -12 -3 -19
q0 -18 25 -24l-3 -16h-97q-25 0 -35.5 9.5t-10.5 29.5q0 13 5 33l66 281q7 27 7 47q0 28 -16.5 38t-56.5 10q-45 0 -72.5 -26.5t-38.5 -73.5z" />
    <glyph glyph-name="o" unicode="o" horiz-adv-x="531" 
d="M209 -7q-91 0 -136 39q-48 42 -48 133q0 48 15 116q36 154 96 211t190 57q93 0 137.5 -46t44.5 -132q0 -46 -14 -107q-39 -161 -99 -216t-186 -55zM226 94q54 0 82 33q32 37 59 145q15 60 15 99q0 77 -75 77q-56 0 -83 -31q-31 -35 -56 -140q-16 -72 -16 -107
q0 -41 17.5 -58.5t56.5 -17.5z" />
    <glyph glyph-name="p" unicode="p" horiz-adv-x="555" 
d="M161 100h55q77 0 109 33t59 144q14 61 14 94q0 77 -74 77q-44 0 -68.5 -23.5t-39.5 -87.5zM-2 -75l131 560q2 12 2 17q0 18 -22 23l4 15h98q23 0 32.5 -9t9.5 -27q0 -10 -3 -22h8l39 48q15 11 34 15t48 4q149 0 149 -167q0 -48 -14 -113q-36 -163 -98 -219
q-55 -50 -178 -50h-101l-20 -88q-3 -12 -3 -19q0 -18 25 -24l-3 -16h-97q-25 0 -35.5 9.5t-10.5 29.5q0 13 5 33z" />
    <glyph glyph-name="q" unicode="q" horiz-adv-x="559" 
d="M275 -75l33 141h-9l-41 -50q-19 -12 -40.5 -17.5t-60.5 -5.5q-131 0 -131 146q0 57 19 136q37 158 119 219q62 46 164 46h164q40 0 40 -35q0 -9 -3 -21l-135 -572q-3 -12 -3 -19q0 -18 25 -24l-3 -16h-97q-25 0 -35.5 9.5t-10.5 29.5q0 13 5 33zM397 444h-64
q-60 0 -95 -36q-38 -40 -61 -134q-9 -39 -14 -68t-5 -49q0 -35 15 -49t49 -14q52 0 78 23t40 84z" />
    <glyph glyph-name="r" unicode="r" horiz-adv-x="402" 
d="M218 375l-74 -316q-3 -12 -3 -19q0 -18 25 -24l-3 -16h-97q-25 0 -35.5 9.5t-10.5 29.5q0 13 5 33l97 413q2 12 2 17q0 18 -22 23l4 15h98q23 0 32.5 -9t9.5 -26q0 -11 -3 -23h8l33 44q13 13 28 18t49 5h80l-16 -67q-8 -37 -45 -37h-72q-39 0 -60 -15.5t-30 -54.5z" />
    <glyph glyph-name="s" unicode="s" horiz-adv-x="439" 
d="M187 96q36 0 54.5 11t27.5 44q3 12 3 22q0 36 -41 53l-62 27q-49 21 -69.5 46.5t-20.5 64.5q0 9 2 22.5t5 29.5q14 60 49.5 92t96.5 32h188l-15 -63q-7 -33 -44 -33h-110q-20 0 -34.5 -9t-18 -25.5t-3.5 -20.5q0 -14 7 -22t24 -15l90 -38q35 -16 57 -40q27 -31 27 -72
q0 -13 -5 -35q-21 -94 -50 -127q-35 -40 -111 -40h-183q-50 0 -50 40v12t4 20l13 58h12q6 -15 16 -24.5t25 -9.5h116z" />
    <glyph glyph-name="t" unicode="t" horiz-adv-x="365" 
d="M99 444h-39l19 69q46 6 85.5 42t61.5 87h41l-24 -102h131l-15 -63q-7 -33 -44 -33h-50q-24 0 -36.5 -10.5t-19.5 -39.5l-56 -238q-3 -14 -3 -24q0 -17 12 -24t40 -7h42q22 0 33 4.5t22 21.5h14l-14 -59q-10 -42 -28.5 -55t-75.5 -13h-113q-71 0 -71 58q0 19 8 53z" />
    <glyph glyph-name="u" unicode="u" horiz-adv-x="550" 
d="M342 191l69 294q2 12 2 17q0 18 -22 23l4 15h98q22 0 32 -9t10 -26q0 -7 -4 -29l-98 -417q-3 -12 -3 -19q0 -18 25 -24l-3 -16h-97q-25 0 -35.5 9.5t-10.5 29.5q0 13 5 33h-7l-41 -56q-18 -14 -39.5 -19.5t-67.5 -5.5q-66 0 -97.5 29.5t-31.5 83.5q0 30 9 66l74 315
q2 12 2 17q0 18 -22 23l4 15h98q22 0 32 -9t10 -26q0 -7 -4 -29l-68 -289q-7 -29 -7 -50q0 -27 16 -35.5t56 -8.5q48 0 74.5 25.5t37.5 72.5z" />
    <glyph glyph-name="v" unicode="v" horiz-adv-x="465" 
d="M37 540h100q22 0 30.5 -13t8.5 -36l16 -346l169 336q8 14 8 25q0 15 -20 18l3 16h95q30 0 30 -21q0 -10 -10 -32l-242 -487h-138l-29 484q0 20 -4.5 28.5t-20.5 11.5z" />
    <glyph glyph-name="w" unicode="w" horiz-adv-x="772" 
d="M355 302l-136 -302h-140l-9 488q0 11 -3 19q-6 17 -22 17l4 16h92q26 0 36 -10t10 -40l4 -327l170 377h89l35 -379l152 316q8 16 8 27q0 16 -18 20l4 16h107q25 0 25 -17l-3 -16l-246 -507h-134z" />
    <glyph glyph-name="x" unicode="x" horiz-adv-x="513" 
d="M196 288l-84 193q-9 22 -15 29q-10 12 -28 14l5 16h96q25 0 36.5 -8.5t22.5 -34.5l49 -112l89 100q12 14 12 24q0 12 -19 15l4 16h124q26 0 26 -18q0 -12 -14 -28l-178 -206l110 -248q6 -14 11 -18t21 -6l-4 -16h-98q-24 0 -36 9.5t-23 34.5l-64 148l-118 -137
q-10 -11 -10 -21q0 -14 22 -18l-5 -16h-126q-11 0 -17 6t-6 15q0 12 7 19z" />
    <glyph glyph-name="y" unicode="y" horiz-adv-x="498" 
d="M115 540q40 0 51 -44l62 -260l153 241q11 17 11 28q0 16 -21 19l4 16h120q20 0 20 -18l-3 -13l-384 -605q-8 -13 -8 -20q0 -12 21 -15l-4 -16h-110q-24 0 -24 21q0 9 7 19l130 205l-92 384q-5 20 -11 29.5t-21 12.5l4 16h95z" />
    <glyph glyph-name="z" unicode="z" horiz-adv-x="458" 
d="M138 96h165q22 0 33 4.5t22 21.5h14l-13 -54q-10 -42 -28.5 -55t-75.5 -13h-242q-38 0 -38 30l2 16l5 21q3 12 5.5 18t10.5 15l279 344h-157q-21 0 -30 5.5t-9 22.5q0 7 3 18l12 50h338l-14 -60q-10 -46 -29 -70z" />
    <glyph glyph-name="braceleft" unicode="{" horiz-adv-x="470" 
d="M39 262q50 21 72 58q14 23 24 68l44 219q11 53 65.5 77t135.5 24q16 0 48 -2.5t39 -2.5q-56 -27 -73 -44q-24 -23 -35 -75l-46 -217q-7 -42 -27 -67q-26 -33 -70 -38q30 -4 43 -23.5t13 -49.5l-4 -40l-38 -177q-5 -24 -7 -37t-2 -22q0 -28 13.5 -48t47.5 -33
q-50 -5 -93 -5q-70 0 -107 19q-45 23 -45 70l4 28l40 191q1 8 5 28.5t4 32.5q0 21 -11 37.5t-40 28.5z" />
    <glyph glyph-name="bar" unicode="|" horiz-adv-x="289" 
d="M270 629l-147 -629h-66q-39 0 -39 42q0 13 2 20l149 629h66q38 0 38 -41q0 -9 -3 -21z" />
    <glyph glyph-name="braceright" unicode="}" horiz-adv-x="470" 
d="M257 278q-35 6 -50 22t-15 39q0 10 6.5 36.5t6.5 28.5l36 187q6 21 6 38q0 51 -62 74q16 0 54 2.5t48 2.5q62 0 99 -16q46 -20 46 -64l-4 -30l-40 -187q-4 -23 -5 -31q-4 -23 -4 -30q0 -27 13 -46.5t42 -25.5q-50 -21 -74 -61q-19 -31 -31 -91l-39 -182q-13 -63 -74 -89
q-44 -19 -116 -19q-30 0 -51.5 1t-39.5 2q49 18 68.5 40.5t30.5 78.5l37 168q13 64 29 93q27 48 83 59z" />
    <glyph glyph-name="asciitilde" unicode="~" horiz-adv-x="533" 
d="M7 210q26 39 60 70q58 52 113 52q27 0 53 -10q10 -4 65 -32q41 -21 64 -21q22 0 44.5 16t42.5 51l54 -67q-34 -58 -81.5 -89t-94.5 -31q-16 0 -30 3.5t-33 11.5q-32 19 -50 28q-33 18 -58 18q-24 0 -47 -15t-48 -53z" />
    <glyph glyph-name="nonbreakingspace" unicode="&#xa0;" horiz-adv-x="500" 
 />
    <glyph glyph-name="exclamdown" unicode="&#xa1;" horiz-adv-x="507" 
d="M70 110h51q25 0 34 7t23 36l11 22l-143 468q-4 14 -11 21.5t-22 7.5l5 19h117q20 0 30 -10t16 -29l88 -320l150 299q7 16 7 23q0 14 -20 18l4 19h105q35 0 35 -20q0 -8 -9 -28l-275 -553q-27 -54 -53.5 -72t-71.5 -18h-45q-42 0 -42 33q0 11 2 18zM426 752h-245
q-27 0 -27 21q0 11 2 17l10 42h245q27 0 27 -21q0 -11 -2 -17z" />
    <glyph glyph-name="cent" unicode="&#xa2;" horiz-adv-x="550" 
d="M349 220l62 265q2 12 2 17q0 18 -22 23l4 15h98q22 0 32 -9t10 -26q0 -7 -4 -29l-105 -452q-19 -82 -62 -123q-50 -48 -140 -48h-149q-37 0 -57 11t-20 40q0 6 4 26l14 58h12q6 -16 18.5 -25t36.5 -9h120q45 0 70.5 21.5t36.5 71.5l11 54h-7l-41 -56q-18 -14 -39.5 -19.5
t-67.5 -5.5q-66 0 -97.5 29.5t-31.5 83.5q0 30 9 66l67 286q2 12 2 17q0 18 -22 23l4 15h98q22 0 32 -9t10 -26q0 -7 -4 -29l-61 -260q-7 -29 -7 -50q0 -27 16 -35.5t56 -8.5q48 0 74.5 25.5t37.5 72.5zM430 604h-187q-23 0 -23 18q0 6 3 15l7 37h187q23 0 23 -18
q0 -6 -3 -15z" />
    <glyph glyph-name="currency" unicode="&#xa4;" horiz-adv-x="556" 
d="M278 200q45 0 74.5 32.5t29.5 80.5t-28.5 79.5t-75.5 31.5q-45 0 -73.5 -31.5t-28.5 -79.5q0 -49 27.5 -81t74.5 -32zM-3 98l98 98q-15 25 -23 53.5t-8 63.5q0 32 8.5 62.5t22.5 52.5l-98 98l66 66l98 -98q26 16 54.5 24.5t62.5 8.5t63.5 -8.5t53.5 -24.5l98 98l66 -66
l-98 -98q15 -23 24 -52.5t9 -62.5q0 -34 -8.5 -63.5t-24.5 -53.5l98 -98l-66 -66l-98 98q-23 -15 -52.5 -24t-64.5 -9q-32 0 -61.5 8.5t-55.5 24.5l-98 -98z" />
    <glyph glyph-name="brokenbar" unicode="&#xa6;" horiz-adv-x="289" 
d="M270 629l-147 -629h-66q-39 0 -39 42q0 13 2 20l149 629h66q38 0 38 -41q0 -9 -3 -21z" />
    <glyph glyph-name="section" unicode="&#xa7;" horiz-adv-x="556" 
d="M240 512l162 -81q58 -29 85 -60q35 -41 35 -103q0 -28 -20 -64q-27 -48 -75 -70q23 -19 39 -46q23 -38 23 -82q0 -90 -66 -142q-61 -48 -150 -48q-116 0 -172 75q-38 51 -38 112h132q4 -36 20 -55q22 -26 68 -26q40 0 59 28q13 19 13 43t-14 38t-45 30l-153 78
q-57 29 -81 61q-28 38 -28 100q0 43 27 78q23 30 66 54q-21 19 -34 44q-18 34 -18 72q0 73 52 124q56 55 150 55q84 0 136 -37q66 -47 66 -146h-127q0 35 -20 56t-58 21q-33 0 -52.5 -17t-19.5 -39q0 -34 38 -53zM341 309l-146 74q-21 -7 -32 -26t-11 -32q0 -21 12.5 -36
t33.5 -26l157 -84q43 24 43 66q0 21 -15.5 36t-41.5 28z" />
    <glyph glyph-name="dieresis" unicode="&#xa8;" horiz-adv-x="531" 
d="M128 691h405l-13 -57q-7 -31 -20.5 -42.5t-44.5 -11.5h-185l-35 -148h213l-13 -56q-7 -31 -20.5 -42.5t-44.5 -11.5h-105q-29 0 -44.5 -10t-22.5 -39l-39 -163h191q32 0 44 5t25 26h19l-22 -93q-11 -48 -62 -48h-304q-39 0 -39 42q0 13 2 20l133 564q1 5 1.5 10.5
t0.5 7.5q0 25 -24 28zM320 752h-79q-35 0 -35 24l2 16l14 56h79q35 0 35 -24l-2 -16zM497 752h-79q-35 0 -35 24l2 16l14 56h79q35 0 35 -24l-2 -16z" />
    <glyph glyph-name="copyright" unicode="&#xa9;" horiz-adv-x="737" 
d="M450 289h81q-10 -66 -55 -104t-106 -38q-85 0 -136.5 55.5t-51.5 140.5q0 86 50 140.5t136 54.5q63 0 106 -35.5t54 -102.5h-78q-6 29 -28.5 44.5t-53.5 15.5q-44 0 -68.5 -30.5t-24.5 -84.5q0 -51 26 -85t69 -34q35 0 56 15.5t24 47.5zM723 340q0 -162 -107 -261
q-100 -93 -248 -93q-147 0 -248 93q-108 100 -108 261q0 162 107 261q101 93 249 93q147 0 248 -93q107 -99 107 -261zM621 340q0 120 -74 196t-179 76q-108 0 -181 -76t-73 -196t73 -196t181 -76q105 0 179 76t74 196z" />
    <glyph glyph-name="ordfeminine" unicode="&#xaa;" horiz-adv-x="539" 
d="M327 -5h-145q-90 0 -130 51q-35 44 -35 130q0 38 7 84.5t20 100.5q44 188 113 262q63 68 176 68h196l-13 -57q-7 -30 -20.5 -41.5t-45.5 -11.5h-86q-71 0 -104.5 -33t-57.5 -116h232l-13 -56q-7 -31 -20.5 -42.5t-44.5 -11.5h-124q-28 0 -42.5 -8t-22.5 -32
q-4 -23 -7.5 -47.5t-3.5 -41.5q0 -47 22 -65t75 -18h106q36 0 45 3q17 6 34 28h19l-16 -69q-10 -42 -38.5 -59.5t-75.5 -17.5z" />
    <glyph glyph-name="guillemotleft" unicode="&#xab;" horiz-adv-x="556" 
d="M255 368l-100 -88l100 -88v-116l-167 144v120l167 144v-116zM468 368l-100 -88l100 -88v-116l-167 144v120l167 144v-116z" />
    <glyph glyph-name="logicalnot" unicode="&#xac;" horiz-adv-x="584" 
d="M432 63v199h-392v112h504v-311h-112z" />
    <glyph glyph-name="minus" unicode="&#xad;" horiz-adv-x="333" 
d="M306 349v-130h-279v130h279z" />
    <glyph glyph-name="registered" unicode="&#xae;" horiz-adv-x="737" 
d="M309 310v-160h-82v381h143q79 0 117.5 -25.5t38.5 -89.5q0 -50 -25.5 -74.5t-66.5 -24.5l98 -167h-97l-88 160h-38zM309 375h72q32 0 43 8q15 11 15 41q0 26 -25 36q-16 6 -48 6h-57v-91zM723 340q0 -162 -107 -261q-100 -93 -248 -93q-147 0 -248 93q-108 100 -108 261
q0 162 107 261q101 93 249 93q147 0 248 -93q107 -99 107 -261zM621 340q0 120 -74 196t-179 76q-108 0 -181 -76t-73 -196t73 -196t181 -76q105 0 179 76t74 196z" />
    <glyph glyph-name="macron" unicode="&#xaf;" horiz-adv-x="331" 
d="M32 62l133 564q1 5 1.5 10.5t0.5 7.5q0 25 -24 28l4 19h118q38 0 38 -41q0 -9 -3 -21l-132 -564q-1 -5 -1.5 -10.5t-0.5 -7.5q0 -25 25 -28l-4 -19h-118q-39 0 -39 42q0 13 2 20zM219 752h-79q-35 0 -35 24l2 16l14 56h79q35 0 35 -24l-2 -16zM396 752h-79q-35 0 -35 24
l2 16l14 56h79q35 0 35 -24l-2 -16z" />
    <glyph glyph-name="degree" unicode="&#xb0;" horiz-adv-x="400" 
d="M57 542q0 59 42 101t101 42t101 -42t42 -101t-42 -101t-101 -42t-101 42t-42 101zM113 542q0 -36 25.5 -61.5t61.5 -25.5t61.5 25.5t25.5 61.5t-25.5 61.5t-61.5 25.5t-61.5 -25.5t-25.5 -61.5z" />
    <glyph glyph-name="plusminus" unicode="&#xb1;" horiz-adv-x="584" 
d="M234 381v125h112v-125h196v-112h-196v-126h-112v126h-196v112h196zM38 0v112h504v-112h-504z" />
    <glyph glyph-name="twosuperior" unicode="&#xb2;" horiz-adv-x="331" 
d="M32 62l133 564q1 5 1.5 10.5t0.5 7.5q0 25 -24 28l4 19h118q38 0 38 -41q0 -9 -3 -21l-132 -564q-1 -5 -1.5 -10.5t-0.5 -7.5q0 -25 25 -28l-4 -19h-118q-39 0 -39 42q0 13 2 20z" />
    <glyph glyph-name="threesuperior" unicode="&#xb3;" horiz-adv-x="272" 
d="M243 476l-98 -417q-3 -12 -3 -19q0 -18 25 -24l-3 -16h-97q-25 0 -35.5 9.5t-10.5 29.5q0 13 5 33l97 413q2 12 2 17q0 18 -22 23l4 15h98q22 0 32 -9t10 -26q0 -7 -4 -29zM271 595h-79q-35 0 -35 24l2 16l14 56h79q35 0 35 -24l-2 -16z" />
    <glyph glyph-name="paragraph" unicode="&#xb6;" horiz-adv-x="570" 
d="M265 691h260q18 0 24 -8t6 -22q0 -9 -5 -29l-166 -720q-3 -12 -3 -19q0 -18 25 -24l-3 -16h-100q-25 0 -35.5 9.5t-10.5 29.5q0 13 5 33l146 636h-60l-150 -649q-3 -12 -3 -19q0 -18 25 -24l-3 -16h-100q-25 0 -35.5 9.5t-10.5 29.5q0 13 5 33l84 363q-53 11 -79.5 55.5
t-26.5 108.5q0 33 8 70q19 82 64 123q51 46 139 46z" />
    <glyph glyph-name="periodcentered" unicode="&#xb7;" horiz-adv-x="249" 
d="M122 315q24 0 43 -18t19 -45q0 -24 -18 -43t-45 -19q-26 0 -44 18t-18 44q0 27 19 45t44 18z" />
    <glyph glyph-name="periodcentered" unicode="&#x2219;" horiz-adv-x="249" 
d="M122 315q24 0 43 -18t19 -45q0 -24 -18 -43t-45 -19q-26 0 -44 18t-18 44q0 27 19 45t44 18z" />
    <glyph glyph-name="cedilla" unicode="&#xb8;" horiz-adv-x="511" 
d="M402 248h-238l-8 -44t-4 -43q0 -35 18.5 -51t64.5 -16h92q39 0 56 4.5t32 21.5h14l-13 -54q-10 -42 -37.5 -57.5t-95.5 -15.5h-79q-87 0 -129 32q-50 38 -50 130q0 56 17 127q32 138 92 196q64 62 182 62q181 0 181 -138q0 -15 -3 -32.5t-4 -25.5q-13 -60 -30 -78
t-58 -18zM369 344q7 28 7 49q0 27 -16.5 39t-54.5 12q-53 0 -80 -28q-20 -21 -35 -72h179zM293 595h-79q-35 0 -35 24l2 16l14 56h79q35 0 35 -24l-2 -16zM470 595h-79q-35 0 -35 24l2 16l14 56h79q35 0 35 -24l-2 -16z" />
    <glyph glyph-name="onesuperior" unicode="&#xb9;" horiz-adv-x="891" 
d="M268 652l156 -403l91 377q1 5 1.5 10.5t0.5 7.5q0 25 -24 28l4 19h94q38 0 38 -41q0 -9 -3 -21l-147 -629h-69q-25 0 -35 24l-160 410l-86 -369q-1 -5 -1.5 -10.5t-0.5 -7.5q0 -25 25 -28l-4 -19h-95q-39 0 -39 42q0 13 2 20l133 564q1 5 1.5 10.5t0.5 7.5q0 25 -24 28
l4 19h90q36 0 47 -39zM691 90q-53 0 -81.5 24.5t-28.5 77.5q0 17 2 33t8 40q20 92 56.5 126.5t115.5 34.5q57 0 84 -28t27 -79q0 -30 -9 -66q-24 -98 -59.5 -130.5t-114.5 -32.5zM702 150q33 0 50.5 21t35.5 88q9 36 9 60q0 47 -45 47q-33 0 -51 -20.5t-30.5 -74
t-12.5 -77.5q0 -44 44 -44zM794 7h-207q-28 0 -28 17l2 12l6 24h207q28 0 28 -17l-2 -12z" />
    <glyph glyph-name="ordmasculine" unicode="&#xba;" horiz-adv-x="482" 
d="M303 94q39 0 56 4.5t32 21.5h14l-13 -54q-10 -42 -37.5 -57.5t-95.5 -15.5h-64q-82 0 -124 36q-47 40 -47 127q0 44 14 108q36 156 107 224q54 52 125 52h195l-15 -63q-7 -33 -47 -33h-95q-44 0 -72.5 -24.5t-49.5 -87.5h183l-15 -63q-7 -33 -47 -33h-145
q-12 -45 -12 -74q0 -38 21.5 -53t68.5 -15h63z" />
    <glyph glyph-name="guillemotright" unicode="&#xbb;" horiz-adv-x="556" 
d="M401 280l-100 88v116l167 -144v-120l-167 -144v116zM188 280l-100 88v116l167 -144v-120l-167 -144v116z" />
    <glyph glyph-name="onequarter" unicode="&#xbc;" horiz-adv-x="526" 
d="M485 213h-456l12 65h456zM234 429q4 25 26 43t46 18q22 0 36.5 -14.5t14.5 -36.5q0 -7 -1 -10q-4 -24 -25 -43t-47 -19q-21 0 -36 15t-15 37q0 7 1 10zM170 62q5 26 25.5 44t45.5 18q22 0 37 -15t15 -37q0 -7 -1 -10q-5 -23 -26.5 -42t-45.5 -19q-21 0 -36 15t-15 36
q0 7 1 10z" />
    <glyph glyph-name="onehalf" unicode="&#xbd;" horiz-adv-x="512" 
d="M65 343l96 79l98 -132l161 132l61 -79l-158 -133l100 -131l-93 -75l-104 129l-154 -129l-65 75l161 131z" />
    <glyph glyph-name="threequarters" unicode="&#xbe;" horiz-adv-x="524" 
d="M135 0h-83q-34 0 -34 27q0 12 2 19l12 52h83q35 0 35 -25q0 -10 -2 -17zM315 0h-83q-34 0 -34 27q0 12 2 19l12 52h83q35 0 35 -25q0 -10 -2 -17zM495 0h-83q-34 0 -34 27q0 12 2 19l12 52h83q35 0 35 -25q0 -10 -2 -17z" />
    <glyph glyph-name="questiondown" unicode="&#xbf;" horiz-adv-x="272" 
d="M243 476l-98 -417q-3 -12 -3 -19q0 -18 25 -24l-3 -16h-97q-25 0 -35.5 9.5t-10.5 29.5q0 13 5 33l97 413q2 12 2 17q0 18 -22 23l4 15h98q22 0 32 -9t10 -26q0 -7 -4 -29zM165 595h-79q-35 0 -35 24l2 16l14 56h79q35 0 35 -24l-2 -16zM342 595h-79q-35 0 -35 24l2 16
l14 56h79q35 0 35 -24l-2 -16z" />
    <glyph glyph-name="Agrave" unicode="&#xc0;" horiz-adv-x="548" 
d="M517 0h-109q-49 0 -49 53l-3 122h-203l-60 -100q-13 -22 -13 -35q0 -21 27 -21l-5 -19h-128q-31 0 -31 21q0 12 9 27l340 566q11 19 11 31q0 21 -26 28l5 18h143q23 0 36.5 -13.5t13.5 -35.5l14 -575q0 -27 5.5 -35.5t26.5 -12.5zM349 500l-131 -215h136z" />
    <glyph glyph-name="Agrave" unicode="&#x410;" horiz-adv-x="548" 
d="M517 0h-109q-49 0 -49 53l-3 122h-203l-60 -100q-13 -22 -13 -35q0 -21 27 -21l-5 -19h-128q-31 0 -31 21q0 12 9 27l340 566q11 19 11 31q0 21 -26 28l5 18h143q23 0 36.5 -13.5t13.5 -35.5l14 -575q0 -27 5.5 -35.5t26.5 -12.5zM349 500l-131 -215h136z" />
    <glyph glyph-name="Aacute" unicode="&#xc1;" horiz-adv-x="581" 
d="M210 323l-49 -213h100q54 0 80 20q30 23 45 84q6 26 6 45q0 33 -21 48.5t-70 15.5h-91zM129 691h422l-12 -57q-6 -30 -19.5 -41.5t-45.5 -11.5h-204l-34 -148h107q91 0 142.5 -42.5t51.5 -120.5q0 -28 -8 -65q-27 -116 -84.5 -160.5t-177.5 -44.5h-216q-39 0 -39 42
q0 13 2 20l133 564q1 5 1.5 10.5t0.5 7.5q0 25 -24 28z" />
    <glyph glyph-name="Aacute" unicode="&#x411;" horiz-adv-x="581" 
d="M210 323l-49 -213h100q54 0 80 20q30 23 45 84q6 26 6 45q0 33 -21 48.5t-70 15.5h-91zM129 691h422l-12 -57q-6 -30 -19.5 -41.5t-45.5 -11.5h-204l-34 -148h107q91 0 142.5 -42.5t51.5 -120.5q0 -28 -8 -65q-27 -116 -84.5 -160.5t-177.5 -44.5h-216q-39 0 -39 42
q0 13 2 20l133 564q1 5 1.5 10.5t0.5 7.5q0 25 -24 28z" />
    <glyph glyph-name="Acircumflex" unicode="&#xc2;" horiz-adv-x="607" 
d="M270 580l-34 -149h101q44 0 66.5 15t32.5 57l4 27q0 50 -69 50h-101zM211 321l-50 -211h113q54 0 82.5 23t42.5 78q4 16 4 33q0 38 -24.5 57.5t-66.5 19.5h-101zM301 0h-250q-39 0 -39 42q0 13 2 20l133 564q1 5 1.5 10.5t0.5 7.5q0 25 -24 28l4 19h265q85 0 131.5 -39
t46.5 -104q0 -17 -1 -24t-4 -21q-12 -53 -33 -81q-26 -34 -75 -42q41 -18 61 -45q25 -33 25 -84q0 -24 -8 -59q-24 -101 -79.5 -146.5t-156.5 -45.5z" />
    <glyph glyph-name="Acircumflex" unicode="&#x412;" horiz-adv-x="607" 
d="M270 580l-34 -149h101q44 0 66.5 15t32.5 57l4 27q0 50 -69 50h-101zM211 321l-50 -211h113q54 0 82.5 23t42.5 78q4 16 4 33q0 38 -24.5 57.5t-66.5 19.5h-101zM301 0h-250q-39 0 -39 42q0 13 2 20l133 564q1 5 1.5 10.5t0.5 7.5q0 25 -24 28l4 19h265q85 0 131.5 -39
t46.5 -104q0 -17 -1 -24t-4 -21q-12 -53 -33 -81q-26 -34 -75 -42q41 -18 61 -45q25 -33 25 -84q0 -24 -8 -59q-24 -101 -79.5 -146.5t-156.5 -45.5z" />
    <glyph glyph-name="Atilde" unicode="&#xc3;" horiz-adv-x="504" 
d="M128 691h417l-12 -57q-6 -30 -19.5 -41.5t-45.5 -11.5h-198l-121 -516q-1 -5 -1.5 -10.5t-0.5 -7.5q0 -25 25 -28l-4 -19h-118q-39 0 -39 42q0 13 2 20l133 564q1 5 1.5 10.5t0.5 7.5q0 25 -24 28z" />
    <glyph glyph-name="Atilde" unicode="&#x413;" horiz-adv-x="504" 
d="M128 691h417l-12 -57q-6 -30 -19.5 -41.5t-45.5 -11.5h-198l-121 -516q-1 -5 -1.5 -10.5t-0.5 -7.5q0 -25 25 -28l-4 -19h-118q-39 0 -39 42q0 13 2 20l133 564q1 5 1.5 10.5t0.5 7.5q0 25 -24 28z" />
    <glyph glyph-name="Adieresis" unicode="&#xc4;" horiz-adv-x="615" 
d="M269 691h156q26 0 38 -15q9 -12 12 -38l42 -476q3 -31 13.5 -41.5t41.5 -10.5h14l-14 -61q-7 -29 -19.5 -39t-41.5 -10h-509q-38 0 -38 25q0 8 3 20l15 65h20q35 0 57 46l223 461q9 18 9 30q0 20 -28 25zM353 523l-200 -413h233z" />
    <glyph glyph-name="Adieresis" unicode="&#x414;" horiz-adv-x="615" 
d="M269 691h156q26 0 38 -15q9 -12 12 -38l42 -476q3 -31 13.5 -41.5t41.5 -10.5h14l-14 -61q-7 -29 -19.5 -39t-41.5 -10h-509q-38 0 -38 25q0 8 3 20l15 65h20q35 0 57 46l223 461q9 18 9 30q0 20 -28 25zM353 523l-200 -413h233z" />
    <glyph glyph-name="Aring" unicode="&#xc5;" horiz-adv-x="537" 
d="M132 691h404l-12 -57q-6 -30 -19.5 -41.5t-45.5 -11.5h-185l-35 -149h212l-12 -57q-6 -30 -19.5 -41.5t-45.5 -11.5h-105q-29 0 -44.5 -10t-22.5 -39l-39 -163h191q32 0 44 5t25 26h19l-22 -93q-11 -48 -62 -48h-304q-39 0 -39 42q0 13 2 20l133 564q1 5 1.5 10.5
t0.5 7.5q0 25 -24 28z" />
    <glyph glyph-name="Aring" unicode="&#x415;" horiz-adv-x="537" 
d="M132 691h404l-12 -57q-6 -30 -19.5 -41.5t-45.5 -11.5h-185l-35 -149h212l-12 -57q-6 -30 -19.5 -41.5t-45.5 -11.5h-105q-29 0 -44.5 -10t-22.5 -39l-39 -163h191q32 0 44 5t25 26h19l-22 -93q-11 -48 -62 -48h-304q-39 0 -39 42q0 13 2 20l133 564q1 5 1.5 10.5
t0.5 7.5q0 25 -24 28z" />
    <glyph glyph-name="AE" unicode="&#xc6;" horiz-adv-x="933" 
d="M609 629l-47 -201l215 203q12 12 12 22q0 16 -20 19l3 19h144q30 0 30 -21q0 -12 -13 -25l-235 -232l99 -276q6 -18 13.5 -22.5t28.5 -4.5h30l-13 -57q-7 -33 -20 -43t-46 -10h-34q-31 0 -41.5 9.5t-23.5 46.5l-96 269l-72 -67l-46 -193q-1 -5 -1.5 -10.5t-0.5 -7.5
q0 -25 25 -28l-4 -19h-118q-39 0 -39 42q0 13 2 20l52 218l-30 50l-224 -288q-21 -27 -33 -34.5t-39 -7.5h-55q-38 0 -38 25q0 8 3 20l15 65h27q18 0 24 3t19 20l234 308l-108 196q-10 18 -19.5 25t-28.5 10l4 19h103q37 0 56 -39l125 -218l46 192q1 5 1.5 10.5t0.5 7.5
q0 25 -24 28l4 19h118q38 0 38 -41q0 -9 -3 -21z" />
    <glyph glyph-name="AE" unicode="&#x416;" horiz-adv-x="933" 
d="M609 629l-47 -201l215 203q12 12 12 22q0 16 -20 19l3 19h144q30 0 30 -21q0 -12 -13 -25l-235 -232l99 -276q6 -18 13.5 -22.5t28.5 -4.5h30l-13 -57q-7 -33 -20 -43t-46 -10h-34q-31 0 -41.5 9.5t-23.5 46.5l-96 269l-72 -67l-46 -193q-1 -5 -1.5 -10.5t-0.5 -7.5
q0 -25 25 -28l-4 -19h-118q-39 0 -39 42q0 13 2 20l52 218l-30 50l-224 -288q-21 -27 -33 -34.5t-39 -7.5h-55q-38 0 -38 25q0 8 3 20l15 65h27q18 0 24 3t19 20l234 308l-108 196q-10 18 -19.5 25t-28.5 10l4 19h103q37 0 56 -39l125 -218l46 192q1 5 1.5 10.5t0.5 7.5
q0 25 -24 28l4 19h118q38 0 38 -41q0 -9 -3 -21z" />
    <glyph glyph-name="Ccedilla" unicode="&#xc7;" horiz-adv-x="540" 
d="M245 321h-56q-38 0 -38 25l3 20l15 65h101q43 0 64.5 15t31.5 58l4 27q0 49 -71 49h-113q-38 0 -38 26l3 20l15 65h161q86 0 132 -39t46 -105q0 -8 -0.5 -15t-4.5 -29q-12 -53 -34 -82q-28 -36 -74 -41q43 -16 63.5 -49.5t20.5 -79.5q0 -30 -8 -65q-25 -104 -80 -147.5
t-168 -43.5h-89q-117 0 -117 62l4 28l14 60h18q4 -22 22 -28.5t57 -6.5h62q68 0 97.5 22t43.5 79q3 9 4 18.5t1 20.5q0 35 -22 53t-70 18z" />
    <glyph glyph-name="Ccedilla" unicode="&#x417;" horiz-adv-x="540" 
d="M245 321h-56q-38 0 -38 25l3 20l15 65h101q43 0 64.5 15t31.5 58l4 27q0 49 -71 49h-113q-38 0 -38 26l3 20l15 65h161q86 0 132 -39t46 -105q0 -8 -0.5 -15t-4.5 -29q-12 -53 -34 -82q-28 -36 -74 -41q43 -16 63.5 -49.5t20.5 -79.5q0 -30 -8 -65q-25 -104 -80 -147.5
t-168 -43.5h-89q-117 0 -117 62l4 28l14 60h18q4 -22 22 -28.5t57 -6.5h62q68 0 97.5 22t43.5 79q3 9 4 18.5t1 20.5q0 35 -22 53t-70 18z" />
    <glyph glyph-name="Egrave" unicode="&#xc8;" horiz-adv-x="659" 
d="M460 415l-307 -341l-2 -9q-1 -5 -1.5 -10.5t-0.5 -7.5q0 -25 25 -28l-4 -19h-118q-39 0 -39 42q0 13 2 20l133 564q1 5 1.5 10.5t0.5 7.5q0 25 -24 28l4 19h118q38 0 38 -41q0 -9 -3 -21l-82 -351l306 337l2 11q1 5 1.5 10.5t0.5 7.5q0 25 -24 28l4 19h118q38 0 38 -41
q0 -9 -3 -21l-132 -564q-1 -5 -1.5 -10.5t-0.5 -7.5q0 -25 25 -28l-4 -19h-118q-39 0 -39 42q0 13 2 20z" />
    <glyph glyph-name="Egrave" unicode="&#x418;" horiz-adv-x="659" 
d="M460 415l-307 -341l-2 -9q-1 -5 -1.5 -10.5t-0.5 -7.5q0 -25 25 -28l-4 -19h-118q-39 0 -39 42q0 13 2 20l133 564q1 5 1.5 10.5t0.5 7.5q0 25 -24 28l4 19h118q38 0 38 -41q0 -9 -3 -21l-82 -351l306 337l2 11q1 5 1.5 10.5t0.5 7.5q0 25 -24 28l4 19h118q38 0 38 -41
q0 -9 -3 -21l-132 -564q-1 -5 -1.5 -10.5t-0.5 -7.5q0 -25 25 -28l-4 -19h-118q-39 0 -39 42q0 13 2 20z" />
    <glyph glyph-name="Eacute" unicode="&#xc9;" horiz-adv-x="657" 
d="M459 415l-307 -341l-2 -9q-1 -5 -1.5 -10.5t-0.5 -7.5q0 -25 25 -28l-4 -19h-118q-39 0 -39 42q0 13 2 20l133 564q1 5 1.5 10.5t0.5 7.5q0 25 -24 28l4 19h118q38 0 38 -41q0 -9 -3 -21l-82 -351l306 337l2 11q1 5 1.5 10.5t0.5 7.5q0 25 -24 28l4 19h118q38 0 38 -41
q0 -9 -3 -21l-132 -564q-1 -5 -1.5 -10.5t-0.5 -7.5q0 -25 25 -28l-4 -19h-118q-39 0 -39 42q0 13 2 20zM534 752h-245q-27 0 -27 21q0 11 2 17l10 42h245q27 0 27 -21q0 -11 -2 -17z" />
    <glyph glyph-name="Eacute" unicode="&#x419;" horiz-adv-x="657" 
d="M459 415l-307 -341l-2 -9q-1 -5 -1.5 -10.5t-0.5 -7.5q0 -25 25 -28l-4 -19h-118q-39 0 -39 42q0 13 2 20l133 564q1 5 1.5 10.5t0.5 7.5q0 25 -24 28l4 19h118q38 0 38 -41q0 -9 -3 -21l-82 -351l306 337l2 11q1 5 1.5 10.5t0.5 7.5q0 25 -24 28l4 19h118q38 0 38 -41
q0 -9 -3 -21l-132 -564q-1 -5 -1.5 -10.5t-0.5 -7.5q0 -25 25 -28l-4 -19h-118q-39 0 -39 42q0 13 2 20zM534 752h-245q-27 0 -27 21q0 11 2 17l10 42h245q27 0 27 -21q0 -11 -2 -17z" />
    <glyph glyph-name="Ecircumflex" unicode="&#xca;" horiz-adv-x="600" 
d="M14 62l133 564q1 5 1.5 10.5t0.5 7.5q0 25 -24 28l4 19h118q38 0 38 -41q0 -9 -3 -21l-48 -201l215 203q12 12 12 22q0 16 -20 19l3 19h144q30 0 30 -21q0 -12 -13 -25l-235 -232l99 -276q6 -18 13.5 -22.5t28.5 -4.5h30l-13 -57q-7 -33 -20 -43t-46 -10h-34
q-31 0 -41.5 9.5t-23.5 46.5l-96 269l-72 -67l-45 -193q-1 -5 -1.5 -10.5t-0.5 -7.5q0 -25 25 -28l-4 -19h-118q-39 0 -39 42q0 13 2 20z" />
    <glyph glyph-name="Ecircumflex" unicode="&#x41a;" horiz-adv-x="600" 
d="M14 62l133 564q1 5 1.5 10.5t0.5 7.5q0 25 -24 28l4 19h118q38 0 38 -41q0 -9 -3 -21l-48 -201l215 203q12 12 12 22q0 16 -20 19l3 19h144q30 0 30 -21q0 -12 -13 -25l-235 -232l99 -276q6 -18 13.5 -22.5t28.5 -4.5h30l-13 -57q-7 -33 -20 -43t-46 -10h-34
q-31 0 -41.5 9.5t-23.5 46.5l-96 269l-72 -67l-45 -193q-1 -5 -1.5 -10.5t-0.5 -7.5q0 -25 25 -28l-4 -19h-118q-39 0 -39 42q0 13 2 20z" />
    <glyph glyph-name="Edieresis" unicode="&#xcb;" horiz-adv-x="537" 
d="M224 691h156q26 0 38 -15q9 -12 12 -38l51 -579q2 -24 7.5 -32t22.5 -8l-4 -19h-113q-25 0 -36.5 10.5t-11.5 39.5l-38 473l-224 -463q-7 -16 -7 -22q0 -15 25 -19l-4 -19h-108q-36 0 -36 23q0 10 8 26l275 568q9 18 9 30q0 20 -28 25z" />
    <glyph glyph-name="Edieresis" unicode="&#x41b;" horiz-adv-x="537" 
d="M224 691h156q26 0 38 -15q9 -12 12 -38l51 -579q2 -24 7.5 -32t22.5 -8l-4 -19h-113q-25 0 -36.5 10.5t-11.5 39.5l-38 473l-224 -463q-7 -16 -7 -22q0 -15 25 -19l-4 -19h-108q-36 0 -36 23q0 10 8 26l275 568q9 18 9 30q0 20 -28 25z" />
    <glyph glyph-name="Igrave" unicode="&#xcc;" horiz-adv-x="770" 
d="M510 691h146q26 0 38.5 -15.5t12.5 -43.5v-581q0 -17 6 -23t24 -9l-5 -19h-119q-36 0 -36 43v408l-195 -451h-72q-31 0 -40.5 9.5t-13.5 46.5l-38 376l-131 -366q-7 -21 -7 -28q0 -16 23 -19l-5 -19h-112q-27 0 -27 20q0 9 4 20l211 577q5 17 5 26q0 22 -27 29l4 19h113
q28 0 39.5 -12t13.5 -37l43 -414l163 389q6 15 6 26q0 23 -28 29z" />
    <glyph glyph-name="Igrave" unicode="&#x41c;" horiz-adv-x="770" 
d="M510 691h146q26 0 38.5 -15.5t12.5 -43.5v-581q0 -17 6 -23t24 -9l-5 -19h-119q-36 0 -36 43v408l-195 -451h-72q-31 0 -40.5 9.5t-13.5 46.5l-38 376l-131 -366q-7 -21 -7 -28q0 -16 23 -19l-5 -19h-112q-27 0 -27 20q0 9 4 20l211 577q5 17 5 26q0 22 -27 29l4 19h113
q28 0 39.5 -12t13.5 -37l43 -414l163 389q6 15 6 26q0 23 -28 29z" />
    <glyph glyph-name="Iacute" unicode="&#xcd;" horiz-adv-x="647" 
d="M426 322h-216l-60 -257q-1 -5 -1.5 -10.5t-0.5 -7.5q0 -25 25 -28l-4 -19h-118q-39 0 -39 42q0 13 2 20l133 564q1 5 1.5 10.5t0.5 7.5q0 25 -24 28l4 19h118q38 0 38 -41q0 -9 -3 -21l-46 -197h216l46 194q1 5 1.5 10.5t0.5 7.5q0 25 -24 28l4 19h118q38 0 38 -41
q0 -9 -3 -21l-132 -564q-1 -5 -1.5 -10.5t-0.5 -7.5q0 -25 25 -28l-4 -19h-118q-39 0 -39 42q0 13 2 20z" />
    <glyph glyph-name="Iacute" unicode="&#x41d;" horiz-adv-x="647" 
d="M426 322h-216l-60 -257q-1 -5 -1.5 -10.5t-0.5 -7.5q0 -25 25 -28l-4 -19h-118q-39 0 -39 42q0 13 2 20l133 564q1 5 1.5 10.5t0.5 7.5q0 25 -24 28l4 19h118q38 0 38 -41q0 -9 -3 -21l-46 -197h216l46 194q1 5 1.5 10.5t0.5 7.5q0 25 -24 28l4 19h118q38 0 38 -41
q0 -9 -3 -21l-132 -564q-1 -5 -1.5 -10.5t-0.5 -7.5q0 -25 25 -28l-4 -19h-118q-39 0 -39 42q0 13 2 20z" />
    <glyph glyph-name="Icircumflex" unicode="&#xce;" horiz-adv-x="611" 
d="M42 349q44 191 106 264q74 87 224 87q220 0 220 -205q0 -30 -4.5 -65t-14.5 -78q-47 -202 -111 -276q-72 -83 -221 -83q-115 0 -168 48t-53 148q0 64 22 160zM185 352q-24 -98 -24 -152q0 -49 23 -71t75 -22q69 0 103.5 52t70.5 202q17 73 17 118q0 107 -98 107
q-67 0 -102.5 -50.5t-64.5 -183.5z" />
    <glyph glyph-name="Icircumflex" unicode="&#x41e;" horiz-adv-x="611" 
d="M42 349q44 191 106 264q74 87 224 87q220 0 220 -205q0 -30 -4.5 -65t-14.5 -78q-47 -202 -111 -276q-72 -83 -221 -83q-115 0 -168 48t-53 148q0 64 22 160zM185 352q-24 -98 -24 -152q0 -49 23 -71t75 -22q69 0 103.5 52t70.5 202q17 73 17 118q0 107 -98 107
q-67 0 -102.5 -50.5t-64.5 -183.5z" />
    <glyph glyph-name="Idieresis" unicode="&#xcf;" horiz-adv-x="649" 
d="M487 581h-215l-122 -516q-1 -5 -1.5 -10.5t-0.5 -7.5q0 -25 25 -28l-4 -19h-118q-39 0 -39 42q0 13 2 20l133 564q1 5 1.5 10.5t0.5 7.5q0 25 -24 28l4 19h469q38 0 38 -41q0 -9 -3 -21l-132 -564q-1 -5 -1.5 -10.5t-0.5 -7.5q0 -25 25 -28l-4 -19h-118q-39 0 -39 42
q0 13 2 20z" />
    <glyph glyph-name="Idieresis" unicode="&#x41f;" horiz-adv-x="649" 
d="M487 581h-215l-122 -516q-1 -5 -1.5 -10.5t-0.5 -7.5q0 -25 25 -28l-4 -19h-118q-39 0 -39 42q0 13 2 20l133 564q1 5 1.5 10.5t0.5 7.5q0 25 -24 28l4 19h469q38 0 38 -41q0 -9 -3 -21l-132 -564q-1 -5 -1.5 -10.5t-0.5 -7.5q0 -25 25 -28l-4 -19h-118q-39 0 -39 42
q0 13 2 20z" />
    <glyph glyph-name="Eth" unicode="&#xd0;" horiz-adv-x="581" 
d="M221 364h86q66 0 92.5 20.5t41.5 82.5q3 14 5 25.5t2 21.5q0 34 -21.5 50.5t-68.5 16.5h-87zM194 254l-44 -189q-1 -5 -1.5 -10.5t-0.5 -7.5q0 -25 25 -28l-4 -19h-118q-39 0 -39 42q0 13 2 20l133 564q1 5 1.5 10.5t0.5 7.5q0 25 -24 28l4 19h280q84 0 131.5 -44.5
t47.5 -122.5q0 -32 -9 -71q-29 -124 -91 -165q-52 -34 -178 -34h-116z" />
    <glyph glyph-name="Eth" unicode="&#x420;" horiz-adv-x="581" 
d="M221 364h86q66 0 92.5 20.5t41.5 82.5q3 14 5 25.5t2 21.5q0 34 -21.5 50.5t-68.5 16.5h-87zM194 254l-44 -189q-1 -5 -1.5 -10.5t-0.5 -7.5q0 -25 25 -28l-4 -19h-118q-39 0 -39 42q0 13 2 20l133 564q1 5 1.5 10.5t0.5 7.5q0 25 -24 28l4 19h280q84 0 131.5 -44.5
t47.5 -122.5q0 -32 -9 -71q-29 -124 -91 -165q-52 -34 -178 -34h-116z" />
    <glyph glyph-name="Ntilde" unicode="&#xd1;" horiz-adv-x="539" 
d="M327 -5h-145q-90 0 -130 51q-35 44 -35 130q0 38 7 84.5t20 100.5q44 188 113 262q63 68 176 68h196l-13 -57q-7 -30 -20.5 -41.5t-45.5 -11.5h-86q-84 0 -120 -50q-29 -40 -58 -165t-29 -174q0 -47 21.5 -64.5t74.5 -17.5h106q36 0 45 3q17 6 34 28h19l-16 -69
q-10 -42 -38.5 -59.5t-75.5 -17.5z" />
    <glyph glyph-name="Ntilde" unicode="&#x421;" horiz-adv-x="539" 
d="M327 -5h-145q-90 0 -130 51q-35 44 -35 130q0 38 7 84.5t20 100.5q44 188 113 262q63 68 176 68h196l-13 -57q-7 -30 -20.5 -41.5t-45.5 -11.5h-86q-84 0 -120 -50q-29 -40 -58 -165t-29 -174q0 -47 21.5 -64.5t74.5 -17.5h106q36 0 45 3q17 6 34 28h19l-16 -69
q-10 -42 -38.5 -59.5t-75.5 -17.5z" />
    <glyph glyph-name="Ograve" unicode="&#xd2;" horiz-adv-x="489" 
d="M121 690h345q32 0 44 5t25 26h19l-22 -93q-11 -48 -62 -48h-111l-121 -515q-1 -5 -1.5 -10.5t-0.5 -7.5q0 -25 25 -28l-4 -19h-118q-39 0 -39 42q0 13 2 20l122 518h-99q-32 0 -44 -5t-25 -26h-19l22 93q11 48 62 48z" />
    <glyph glyph-name="Ograve" unicode="&#x422;" horiz-adv-x="489" 
d="M121 690h345q32 0 44 5t25 26h19l-22 -93q-11 -48 -62 -48h-111l-121 -515q-1 -5 -1.5 -10.5t-0.5 -7.5q0 -25 25 -28l-4 -19h-118q-39 0 -39 42q0 13 2 20l122 518h-99q-32 0 -44 -5t-25 -26h-19l22 93q11 48 62 48z" />
    <glyph glyph-name="Oacute" unicode="&#xd3;" horiz-adv-x="504" 
d="M74 110h51q25 0 34 7t23 36l11 22l-143 468q-4 14 -11 21.5t-22 7.5l5 19h117q20 0 30 -10t16 -29l88 -320l150 299q7 16 7 23q0 14 -20 18l4 19h105q35 0 35 -20q0 -8 -9 -28l-275 -553q-27 -54 -53.5 -72t-71.5 -18h-45q-42 0 -42 33q0 11 2 18z" />
    <glyph glyph-name="Oacute" unicode="&#x423;" horiz-adv-x="504" 
d="M74 110h51q25 0 34 7t23 36l11 22l-143 468q-4 14 -11 21.5t-22 7.5l5 19h117q20 0 30 -10t16 -29l88 -320l150 299q7 16 7 23q0 14 -20 18l4 19h105q35 0 35 -20q0 -8 -9 -28l-275 -553q-27 -54 -53.5 -72t-71.5 -18h-45q-42 0 -42 33q0 11 2 18z" />
    <glyph glyph-name="Ocircumflex" unicode="&#xd4;" horiz-adv-x="783" 
d="M517 602h36q102 0 155 -39q58 -43 58 -132q0 -39 -10 -82q-34 -149 -99 -198q-55 -42 -186 -42h-70l-10 -44q-1 -5 -1.5 -10.5t-0.5 -7.5q0 -25 25 -28l-4 -19h-118q-39 0 -39 42q0 13 2 20l11 47h-45q-99 0 -150 38q-55 41 -55 128q0 37 11 87q32 141 102 193
q62 47 193 47h60l6 24q1 5 1.5 10.5t0.5 7.5q0 25 -24 28l4 19h118q38 0 38 -41q0 -9 -3 -21zM491 492l-64 -273h46q66 0 96.5 28.5t49.5 106.5q9 38 9 62q0 42 -25 59t-78 17h-34zM291 219l64 273h-46q-66 0 -96.5 -28.5t-49.5 -106.5q-10 -45 -10 -67q0 -40 23 -55.5
t75 -15.5h40z" />
    <glyph glyph-name="Ocircumflex" unicode="&#x424;" horiz-adv-x="783" 
d="M517 602h36q102 0 155 -39q58 -43 58 -132q0 -39 -10 -82q-34 -149 -99 -198q-55 -42 -186 -42h-70l-10 -44q-1 -5 -1.5 -10.5t-0.5 -7.5q0 -25 25 -28l-4 -19h-118q-39 0 -39 42q0 13 2 20l11 47h-45q-99 0 -150 38q-55 41 -55 128q0 37 11 87q32 141 102 193
q62 47 193 47h60l6 24q1 5 1.5 10.5t0.5 7.5q0 25 -24 28l4 19h118q38 0 38 -41q0 -9 -3 -21zM491 492l-64 -273h46q66 0 96.5 28.5t49.5 106.5q9 38 9 62q0 42 -25 59t-78 17h-34zM291 219l64 273h-46q-66 0 -96.5 -28.5t-49.5 -106.5q-10 -45 -10 -67q0 -40 23 -55.5
t75 -15.5h40z" />
    <glyph glyph-name="Otilde" unicode="&#xd5;" horiz-adv-x="543" 
d="M425 691h131q33 0 33 -22q0 -11 -11 -25l-216 -271l117 -333q7 -13 11.5 -17t21.5 -4l-4 -19h-120q-33 0 -45 37l-72 221l-163 -201q-11 -13 -11 -21q0 -14 26 -17l-5 -19h-127q-32 0 -32 25q0 13 14 32l252 312l-96 256q-10 26 -17.5 35t-25.5 12l4 19h113q25 0 36 -8.5
t18 -28.5l60 -176l115 149q11 16 11 26q0 16 -22 19z" />
    <glyph glyph-name="Otilde" unicode="&#x425;" horiz-adv-x="543" 
d="M425 691h131q33 0 33 -22q0 -11 -11 -25l-216 -271l117 -333q7 -13 11.5 -17t21.5 -4l-4 -19h-120q-33 0 -45 37l-72 221l-163 -201q-11 -13 -11 -21q0 -14 26 -17l-5 -19h-127q-32 0 -32 25q0 13 14 32l252 312l-96 256q-10 26 -17.5 35t-25.5 12l4 19h113q25 0 36 -8.5
t18 -28.5l60 -176l115 149q11 16 11 26q0 16 -22 19z" />
    <glyph glyph-name="Odieresis" unicode="&#xd6;" horiz-adv-x="649" 
d="M409 0h-354q-39 0 -39 42q0 13 2 20l133 564q1 5 1.5 10.5t0.5 7.5q0 25 -24 28l4 19h118q38 0 38 -41q0 -9 -3 -21l-121 -519h212l122 516q1 5 1.5 10.5t0.5 7.5q0 25 -24 28l4 19h118q38 0 38 -41q0 -9 -3 -21l-121 -519h60l-47 -201q-6 -25 -33 -25h-31q-26 0 -33 28z
" />
    <glyph glyph-name="Odieresis" unicode="&#x426;" horiz-adv-x="649" 
d="M409 0h-354q-39 0 -39 42q0 13 2 20l133 564q1 5 1.5 10.5t0.5 7.5q0 25 -24 28l4 19h118q38 0 38 -41q0 -9 -3 -21l-121 -519h212l122 516q1 5 1.5 10.5t0.5 7.5q0 25 -24 28l4 19h118q38 0 38 -41q0 -9 -3 -21l-121 -519h60l-47 -201q-6 -25 -33 -25h-31q-26 0 -33 28z
" />
    <glyph glyph-name="multiply" unicode="&#xd7;" horiz-adv-x="628" 
d="M345 62l51 220h-163q-73 0 -111.5 34.5t-38.5 97.5q0 26 8 60l37 152q1 5 1.5 10.5t0.5 7.5q0 25 -24 28l4 19h118q38 0 38 -41q0 -9 -3 -21l-37 -155q-5 -22 -5 -33q0 -25 16 -37t54 -12h131l56 234q1 5 1.5 10.5t0.5 7.5q0 25 -24 28l4 19h118q38 0 38 -41q0 -9 -3 -21
l-132 -564q-1 -5 -1.5 -10.5t-0.5 -7.5q0 -25 25 -28l-4 -19h-118q-39 0 -39 42q0 13 2 20z" />
    <glyph glyph-name="multiply" unicode="&#x427;" horiz-adv-x="628" 
d="M345 62l51 220h-163q-73 0 -111.5 34.5t-38.5 97.5q0 26 8 60l37 152q1 5 1.5 10.5t0.5 7.5q0 25 -24 28l4 19h118q38 0 38 -41q0 -9 -3 -21l-37 -155q-5 -22 -5 -33q0 -25 16 -37t54 -12h131l56 234q1 5 1.5 10.5t0.5 7.5q0 25 -24 28l4 19h118q38 0 38 -41q0 -9 -3 -21
l-132 -564q-1 -5 -1.5 -10.5t-0.5 -7.5q0 -25 25 -28l-4 -19h-118q-39 0 -39 42q0 13 2 20z" />
    <glyph glyph-name="Oslash" unicode="&#xd8;" horiz-adv-x="958" 
d="M168 110h189l122 516q1 5 1.5 10.5t0.5 7.5q0 25 -24 28l4 19h118q38 0 38 -41q0 -9 -3 -21l-121 -519h189l122 516q1 5 1.5 10.5t0.5 7.5q0 25 -24 28l4 19h118q38 0 38 -41q0 -9 -3 -21l-132 -564q-1 -5 -1.5 -10.5t-0.5 -7.5q0 -25 25 -28l-4 -19h-768q-39 0 -39 42
q0 13 2 20l133 564q1 5 1.5 10.5t0.5 7.5q0 25 -24 28l4 19h118q38 0 38 -41q0 -9 -3 -21z" />
    <glyph glyph-name="Oslash" unicode="&#x428;" horiz-adv-x="958" 
d="M168 110h189l122 516q1 5 1.5 10.5t0.5 7.5q0 25 -24 28l4 19h118q38 0 38 -41q0 -9 -3 -21l-121 -519h189l122 516q1 5 1.5 10.5t0.5 7.5q0 25 -24 28l4 19h118q38 0 38 -41q0 -9 -3 -21l-132 -564q-1 -5 -1.5 -10.5t-0.5 -7.5q0 -25 25 -28l-4 -19h-768q-39 0 -39 42
q0 13 2 20l133 564q1 5 1.5 10.5t0.5 7.5q0 25 -24 28l4 19h118q38 0 38 -41q0 -9 -3 -21z" />
    <glyph glyph-name="Ugrave" unicode="&#xd9;" horiz-adv-x="956" 
d="M168 110h189l122 516q1 5 1.5 10.5t0.5 7.5q0 25 -24 28l4 19h118q38 0 38 -41q0 -9 -3 -21l-121 -519h189l122 516q1 5 1.5 10.5t0.5 7.5q0 25 -24 28l4 19h118q38 0 38 -41q0 -9 -3 -21l-122 -519h60l-47 -201q-6 -25 -33 -25h-31q-26 0 -33 28l-20 88h-655
q-39 0 -39 42q0 13 2 20l133 564q1 5 1.5 10.5t0.5 7.5q0 25 -24 28l4 19h118q38 0 38 -41q0 -9 -3 -21z" />
    <glyph glyph-name="Ugrave" unicode="&#x429;" horiz-adv-x="956" 
d="M168 110h189l122 516q1 5 1.5 10.5t0.5 7.5q0 25 -24 28l4 19h118q38 0 38 -41q0 -9 -3 -21l-121 -519h189l122 516q1 5 1.5 10.5t0.5 7.5q0 25 -24 28l4 19h118q38 0 38 -41q0 -9 -3 -21l-122 -519h60l-47 -201q-6 -25 -33 -25h-31q-26 0 -33 28l-20 88h-655
q-39 0 -39 42q0 13 2 20l133 564q1 5 1.5 10.5t0.5 7.5q0 25 -24 28l4 19h118q38 0 38 -41q0 -9 -3 -21z" />
    <glyph glyph-name="Uacute" unicode="&#xda;" horiz-adv-x="577" 
d="M20 691h229q38 0 38 -41q0 -9 -3 -21l-46 -196h107q91 0 142.5 -42.5t51.5 -121.5q0 -27 -8 -64q-27 -116 -84.5 -160.5t-177.5 -44.5h-216q-39 0 -39 42q0 13 2 20l123 519h-99q-38 0 -38 25q0 8 3 20zM212 323l-49 -213h100q54 0 80 20q30 23 45 84q6 26 6 46
q0 33 -21 48t-70 15h-91z" />
    <glyph glyph-name="Uacute" unicode="&#x42a;" horiz-adv-x="577" 
d="M20 691h229q38 0 38 -41q0 -9 -3 -21l-46 -196h107q91 0 142.5 -42.5t51.5 -121.5q0 -27 -8 -64q-27 -116 -84.5 -160.5t-177.5 -44.5h-216q-39 0 -39 42q0 13 2 20l123 519h-99q-38 0 -38 25q0 8 3 20zM212 323l-49 -213h100q54 0 80 20q30 23 45 84q6 26 6 46
q0 33 -21 48t-70 15h-91z" />
    <glyph glyph-name="Ucircumflex" unicode="&#xdb;" horiz-adv-x="887" 
d="M238 433h107q91 0 142.5 -42.5t51.5 -121.5q0 -27 -8 -64q-27 -116 -84.5 -160.5t-177.5 -44.5h-216q-39 0 -39 42q0 13 2 20l133 564q1 5 1.5 10.5t0.5 7.5q0 25 -24 28l4 19h118q38 0 38 -41q0 -9 -3 -21zM212 323l-49 -213h100q54 0 80 20q30 23 45 84q6 26 6 46
q0 33 -21 48t-70 15h-91zM609 62l133 564q1 5 1.5 10.5t0.5 7.5q0 25 -24 28l4 19h118q38 0 38 -41q0 -9 -3 -21l-132 -564q-1 -5 -1.5 -10.5t-0.5 -7.5q0 -25 25 -28l-4 -19h-118q-39 0 -39 42q0 13 2 20z" />
    <glyph glyph-name="Ucircumflex" unicode="&#x42b;" horiz-adv-x="887" 
d="M238 433h107q91 0 142.5 -42.5t51.5 -121.5q0 -27 -8 -64q-27 -116 -84.5 -160.5t-177.5 -44.5h-216q-39 0 -39 42q0 13 2 20l133 564q1 5 1.5 10.5t0.5 7.5q0 25 -24 28l4 19h118q38 0 38 -41q0 -9 -3 -21zM212 323l-49 -213h100q54 0 80 20q30 23 45 84q6 26 6 46
q0 33 -21 48t-70 15h-91zM609 62l133 564q1 5 1.5 10.5t0.5 7.5q0 25 -24 28l4 19h118q38 0 38 -41q0 -9 -3 -21l-132 -564q-1 -5 -1.5 -10.5t-0.5 -7.5q0 -25 25 -28l-4 -19h-118q-39 0 -39 42q0 13 2 20z" />
    <glyph glyph-name="Udieresis" unicode="&#xdc;" horiz-adv-x="577" 
d="M238 433h107q91 0 142.5 -42.5t51.5 -121.5q0 -27 -8 -64q-27 -116 -84.5 -160.5t-177.5 -44.5h-216q-39 0 -39 42q0 13 2 20l133 564q1 5 1.5 10.5t0.5 7.5q0 25 -24 28l4 19h118q38 0 38 -41q0 -9 -3 -21zM212 323l-49 -213h100q54 0 80 20q30 23 45 84q6 26 6 46
q0 33 -21 48t-70 15h-91z" />
    <glyph glyph-name="Udieresis" unicode="&#x42c;" horiz-adv-x="577" 
d="M238 433h107q91 0 142.5 -42.5t51.5 -121.5q0 -27 -8 -64q-27 -116 -84.5 -160.5t-177.5 -44.5h-216q-39 0 -39 42q0 13 2 20l133 564q1 5 1.5 10.5t0.5 7.5q0 25 -24 28l4 19h118q38 0 38 -41q0 -9 -3 -21zM212 323l-49 -213h100q54 0 80 20q30 23 45 84q6 26 6 46
q0 33 -21 48t-70 15h-91z" />
    <glyph glyph-name="Yacute" unicode="&#xdd;" horiz-adv-x="560" 
d="M291 581h-103q-38 0 -38 25q0 8 3 20l15 65h161q106 0 157.5 -52t51.5 -152q0 -35 -4 -66t-15 -76q-50 -209 -109.5 -279.5t-191.5 -70.5h-82q-117 0 -117 63q0 7 4 27l14 60h18q4 -22 22 -28.5t57 -6.5h62q79 0 110.5 37.5t65.5 174.5h-190q-38 0 -38 25q0 8 3 20l15 65
h229q5 20 6.5 35t1.5 23q0 48 -27 69.5t-81 21.5z" />
    <glyph glyph-name="Yacute" unicode="&#x42d;" horiz-adv-x="560" 
d="M291 581h-103q-38 0 -38 25q0 8 3 20l15 65h161q106 0 157.5 -52t51.5 -152q0 -35 -4 -66t-15 -76q-50 -209 -109.5 -279.5t-191.5 -70.5h-82q-117 0 -117 63q0 7 4 27l14 60h18q4 -22 22 -28.5t57 -6.5h62q79 0 110.5 37.5t65.5 174.5h-190q-38 0 -38 25q0 8 3 20l15 65
h229q5 20 6.5 35t1.5 23q0 48 -27 69.5t-81 21.5z" />
    <glyph glyph-name="Thorn" unicode="&#xde;" horiz-adv-x="892" 
d="M236 432h106q41 143 105 203q71 67 204 67q220 0 220 -205q0 -30 -4.5 -65t-14.5 -78q-47 -202 -111 -276q-72 -83 -221 -83q-115 0 -168 48t-53 149q0 56 15 130h-104l-60 -257q-1 -5 -1.5 -10.5t-0.5 -7.5q0 -25 25 -28l-4 -19h-118q-39 0 -39 42q0 13 2 20l133 564
q1 5 1.5 10.5t0.5 7.5q0 25 -24 28l4 19h118q38 0 38 -41q0 -9 -3 -21zM464 354q-24 -98 -24 -152q0 -49 23 -71t75 -22q69 0 103.5 52t70.5 202q17 73 17 118q0 107 -98 107q-67 0 -102.5 -50.5t-64.5 -183.5z" />
    <glyph glyph-name="Thorn" unicode="&#x42e;" horiz-adv-x="892" 
d="M236 432h106q41 143 105 203q71 67 204 67q220 0 220 -205q0 -30 -4.5 -65t-14.5 -78q-47 -202 -111 -276q-72 -83 -221 -83q-115 0 -168 48t-53 149q0 56 15 130h-104l-60 -257q-1 -5 -1.5 -10.5t-0.5 -7.5q0 -25 25 -28l-4 -19h-118q-39 0 -39 42q0 13 2 20l133 564
q1 5 1.5 10.5t0.5 7.5q0 25 -24 28l4 19h118q38 0 38 -41q0 -9 -3 -21zM464 354q-24 -98 -24 -152q0 -49 23 -71t75 -22q69 0 103.5 52t70.5 202q17 73 17 118q0 107 -98 107q-67 0 -102.5 -50.5t-64.5 -183.5z" />
    <glyph glyph-name="germandbls" unicode="&#xdf;" horiz-adv-x="609" 
d="M324 62l45 192h-67l-142 -195q-27 -37 -48 -48t-59 -11h-45q-38 0 -38 25q0 8 3 20l15 65h25q24 0 33 4t22 22l100 141q-42 18 -65.5 57.5t-23.5 95.5q0 28 8 65q25 107 82 151.5t155 44.5h233q38 0 38 -41q0 -9 -3 -21l-132 -564q-1 -5 -1.5 -10.5t-0.5 -7.5
q0 -25 25 -28l-4 -19h-118q-39 0 -39 42q0 13 2 20zM395 364l51 217h-99q-56 0 -86 -22.5t-43 -76.5q-7 -27 -7 -50q0 -35 20.5 -51.5t68.5 -16.5h95z" />
    <glyph glyph-name="germandbls" unicode="&#x42f;" horiz-adv-x="609" 
d="M324 62l45 192h-67l-142 -195q-27 -37 -48 -48t-59 -11h-45q-38 0 -38 25q0 8 3 20l15 65h25q24 0 33 4t22 22l100 141q-42 18 -65.5 57.5t-23.5 95.5q0 28 8 65q25 107 82 151.5t155 44.5h233q38 0 38 -41q0 -9 -3 -21l-132 -564q-1 -5 -1.5 -10.5t-0.5 -7.5
q0 -25 25 -28l-4 -19h-118q-39 0 -39 42q0 13 2 20zM395 364l51 217h-99q-56 0 -86 -22.5t-43 -76.5q-7 -27 -7 -50q0 -35 20.5 -51.5t68.5 -16.5h95z" />
    <glyph glyph-name="agrave" unicode="&#xe0;" horiz-adv-x="522" 
d="M305 124l32 135h-88q-44 0 -67 -20t-33 -62q-6 -24 -6 -39q0 -24 16.5 -34t57.5 -10q28 0 49 8t39 22zM172 540h226q102 0 102 -86q0 -20 -6 -46l-82 -349q-3 -12 -3 -19q0 -18 25 -24l-3 -16h-97q-25 0 -35.5 9.5t-10.5 29.5q0 13 5 33h-9l-38 -56q-18 -13 -35.5 -18
t-64.5 -5q-60 0 -93 24q-42 30 -42 96q0 27 9 65q24 98 70 137.5t141 39.5h90q21 0 31.5 8.5t17.5 34.5q4 20 4 24q0 22 -33 22h-145q-21 0 -30 5.5t-9 22.5q0 7 3 18z" />
    <glyph glyph-name="agrave" unicode="&#x430;" horiz-adv-x="522" 
d="M305 124l32 135h-88q-44 0 -67 -20t-33 -62q-6 -24 -6 -39q0 -24 16.5 -34t57.5 -10q28 0 49 8t39 22zM172 540h226q102 0 102 -86q0 -20 -6 -46l-82 -349q-3 -12 -3 -19q0 -18 25 -24l-3 -16h-97q-25 0 -35.5 9.5t-10.5 29.5q0 13 5 33h-9l-38 -56q-18 -13 -35.5 -18
t-64.5 -5q-60 0 -93 24q-42 30 -42 96q0 27 9 65q24 98 70 137.5t141 39.5h90q21 0 31.5 8.5t17.5 34.5q4 20 4 24q0 22 -33 22h-145q-21 0 -30 5.5t-9 22.5q0 7 3 18z" />
    <glyph glyph-name="aacute" unicode="&#xe1;" horiz-adv-x="529" 
d="M308 691h221l-15 -63q-7 -33 -47 -33h-128q-49 0 -82 -32q-36 -36 -53 -108h7l41 45q20 13 38.5 18.5t51.5 5.5q79 0 121 -42t42 -122q0 -39 -13 -96q-39 -161 -99 -216t-186 -55q-94 0 -135.5 43.5t-41.5 134.5q0 39 7 86.5t20 105.5q38 166 93 243q61 85 158 85z
M224 94q54 0 82 33q32 37 59 145q11 46 11 77q0 37 -16.5 55.5t-55.5 18.5q-59 0 -89 -34t-49 -112q-15 -63 -15 -103q0 -80 73 -80z" />
    <glyph glyph-name="aacute" unicode="&#x431;" horiz-adv-x="529" 
d="M308 691h221l-15 -63q-7 -33 -47 -33h-128q-49 0 -82 -32q-36 -36 -53 -108h7l41 45q20 13 38.5 18.5t51.5 5.5q79 0 121 -42t42 -122q0 -39 -13 -96q-39 -161 -99 -216t-186 -55q-94 0 -135.5 43.5t-41.5 134.5q0 39 7 86.5t20 105.5q38 166 93 243q61 85 158 85z
M224 94q54 0 82 33q32 37 59 145q11 46 11 77q0 37 -16.5 55.5t-55.5 18.5q-59 0 -89 -34t-49 -112q-15 -63 -15 -103q0 -80 73 -80z" />
    <glyph glyph-name="acircumflex" unicode="&#xe2;" horiz-adv-x="515" 
d="M232 444l-25 -109h80q29 0 47 12.5t25 41.5q2 12 2 17q0 38 -51 38h-78zM186 245l-35 -149h81q45 0 69 16t33 55q3 14 3 25q0 53 -70 53h-81zM259 0h-195q-25 0 -35.5 9.5t-10.5 29.5q0 13 5 33l97 413q2 12 2 17q0 18 -22 23l4 15h230q68 0 107.5 -33t39.5 -82
q0 -14 -3 -29q-9 -40 -26 -62q-20 -27 -58 -34q35 -15 51.5 -38.5t16.5 -60.5q0 -16 -1 -25t-6 -30q-18 -78 -59 -110q-46 -36 -137 -36z" />
    <glyph glyph-name="acircumflex" unicode="&#x432;" horiz-adv-x="515" 
d="M232 444l-25 -109h80q29 0 47 12.5t25 41.5q2 12 2 17q0 38 -51 38h-78zM186 245l-35 -149h81q45 0 69 16t33 55q3 14 3 25q0 53 -70 53h-81zM259 0h-195q-25 0 -35.5 9.5t-10.5 29.5q0 13 5 33l97 413q2 12 2 17q0 18 -22 23l4 15h230q68 0 107.5 -33t39.5 -82
q0 -14 -3 -29q-9 -40 -26 -62q-20 -27 -58 -34q35 -15 51.5 -38.5t16.5 -60.5q0 -16 -1 -25t-6 -30q-18 -78 -59 -110q-46 -36 -137 -36z" />
    <glyph glyph-name="atilde" unicode="&#xe3;" horiz-adv-x="402" 
d="M219 379l-75 -320q-3 -12 -3 -19q0 -18 25 -24l-3 -16h-97q-25 0 -35.5 9.5t-10.5 29.5q0 13 5 33l97 413q2 12 2 17q0 18 -22 23l4 15h363l-16 -64q-8 -37 -45 -37h-121q-28 0 -44 -13t-24 -47z" />
    <glyph glyph-name="atilde" unicode="&#x433;" horiz-adv-x="402" 
d="M219 379l-75 -320q-3 -12 -3 -19q0 -18 25 -24l-3 -16h-97q-25 0 -35.5 9.5t-10.5 29.5q0 13 5 33l97 413q2 12 2 17q0 18 -22 23l4 15h363l-16 -64q-8 -37 -45 -37h-121q-28 0 -44 -13t-24 -47z" />
    <glyph glyph-name="adieresis" unicode="&#xe4;" horiz-adv-x="559" 
d="M314 93h-9l-41 -50q-36 -23 -107 -23q-67 0 -98 31t-31 99q0 53 18 131q32 136 108 200q70 59 179 59h159q40 0 40 -35q0 -9 -3 -21l-110 -464q-18 -79 -68 -121q-54 -46 -145 -46h-118q-46 0 -69 13t-23 47q0 15 4 30l11 45h12q10 -20 28 -27t53 -7h72q56 0 86 21t44 77
zM397 444h-64q-117 0 -155 -163q-16 -67 -16 -103q0 -33 15 -45t50 -12q52 0 78 23t40 84z" />
    <glyph glyph-name="adieresis" unicode="&#x434;" horiz-adv-x="559" 
d="M314 93h-9l-41 -50q-36 -23 -107 -23q-67 0 -98 31t-31 99q0 53 18 131q32 136 108 200q70 59 179 59h159q40 0 40 -35q0 -9 -3 -21l-110 -464q-18 -79 -68 -121q-54 -46 -145 -46h-118q-46 0 -69 13t-23 47q0 15 4 30l11 45h12q10 -20 28 -27t53 -7h72q56 0 86 21t44 77
zM397 444h-64q-117 0 -155 -163q-16 -67 -16 -103q0 -33 15 -45t50 -12q52 0 78 23t40 84z" />
    <glyph glyph-name="aring" unicode="&#xe5;" horiz-adv-x="511" 
d="M402 248h-238l-8 -44t-4 -43q0 -35 18.5 -51t64.5 -16h92q39 0 56 4.5t32 21.5h14l-13 -54q-10 -42 -37.5 -57.5t-95.5 -15.5h-79q-87 0 -129 32q-50 38 -50 130q0 56 17 127q32 138 92 196q64 62 182 62q181 0 181 -138q0 -15 -3 -32.5t-4 -25.5q-13 -60 -30 -78
t-58 -18zM369 344q7 28 7 49q0 27 -16.5 39t-54.5 12q-53 0 -80 -28q-20 -21 -35 -72h179z" />
    <glyph glyph-name="aring" unicode="&#x435;" horiz-adv-x="511" 
d="M402 248h-238l-8 -44t-4 -43q0 -35 18.5 -51t64.5 -16h92q39 0 56 4.5t32 21.5h14l-13 -54q-10 -42 -37.5 -57.5t-95.5 -15.5h-79q-87 0 -129 32q-50 38 -50 130q0 56 17 127q32 138 92 196q64 62 182 62q181 0 181 -138q0 -15 -3 -32.5t-4 -25.5q-13 -60 -30 -78
t-58 -18zM369 344q7 28 7 49q0 27 -16.5 39t-54.5 12q-53 0 -80 -28q-20 -21 -35 -72h179z" />
    <glyph glyph-name="ae" unicode="&#xe6;" horiz-adv-x="784" 
d="M305 72l46 190h-79q-69 0 -85 -70l-34 -144q-12 -48 -51 -48h-106l4 16q18 4 23.5 12t12.5 38l36 155q14 63 45 95q35 37 92 37l56 -1l-90 127q-17 25 -17 39q0 22 35 22h93l-4 -16q-18 -5 -18 -14q0 -7 10 -22l98 -136l66 284q2 12 2 17q0 18 -22 23l4 15h98q22 0 32 -9
t10 -26q0 -7 -4 -29l-65 -275l142 136q13 12 13 22q0 11 -17 14l5 16h111q26 0 26 -21q0 -14 -14 -28l-143 -139h13q54 0 83 -25t29 -71v-17q-3 -12 -4 -18l-38 -162q-3 -12 -3 -19q0 -18 25 -24l-3 -16h-97q-25 0 -35.5 9.5t-10.5 29.5q0 13 5 33l29 122q4 15 4 29
q0 39 -51 39h-90l-48 -203q-3 -12 -3 -19q0 -18 25 -24l-3 -16h-97q-25 0 -35.5 9.5t-10.5 29.5q0 13 5 33z" />
    <glyph glyph-name="ae" unicode="&#x436;" horiz-adv-x="784" 
d="M305 72l46 190h-79q-69 0 -85 -70l-34 -144q-12 -48 -51 -48h-106l4 16q18 4 23.5 12t12.5 38l36 155q14 63 45 95q35 37 92 37l56 -1l-90 127q-17 25 -17 39q0 22 35 22h93l-4 -16q-18 -5 -18 -14q0 -7 10 -22l98 -136l66 284q2 12 2 17q0 18 -22 23l4 15h98q22 0 32 -9
t10 -26q0 -7 -4 -29l-65 -275l142 136q13 12 13 22q0 11 -17 14l5 16h111q26 0 26 -21q0 -14 -14 -28l-143 -139h13q54 0 83 -25t29 -71v-17q-3 -12 -4 -18l-38 -162q-3 -12 -3 -19q0 -18 25 -24l-3 -16h-97q-25 0 -35.5 9.5t-10.5 29.5q0 13 5 33l29 122q4 15 4 29
q0 39 -51 39h-90l-48 -203q-3 -12 -3 -19q0 -18 25 -24l-3 -16h-97q-25 0 -35.5 9.5t-10.5 29.5q0 13 5 33z" />
    <glyph glyph-name="ccedilla" unicode="&#xe7;" horiz-adv-x="457" 
d="M336 300q35 -15 51.5 -38.5t16.5 -60.5q0 -16 -1 -25t-6 -30q-18 -79 -60 -114q-47 -39 -138 -39h-116q-37 0 -57 11t-20 40q0 6 4 26l14 58h12q6 -16 18.5 -25t36.5 -9h83q45 0 69 16.5t33 56.5q3 14 3 25q0 53 -70 53h-69q-21 0 -30 5.5t-9 22.5q0 7 3 18l12 50h115
q31 0 47.5 11t23.5 40q2 12 2 17q0 35 -52 35h-115q-21 0 -30 5.5t-9 22.5q0 7 3 18l12 50h171q68 0 104 -31t36 -81q0 -17 -4 -32q-9 -40 -26 -62q-20 -27 -58 -34z" />
    <glyph glyph-name="ccedilla" unicode="&#x437;" horiz-adv-x="457" 
d="M336 300q35 -15 51.5 -38.5t16.5 -60.5q0 -16 -1 -25t-6 -30q-18 -79 -60 -114q-47 -39 -138 -39h-116q-37 0 -57 11t-20 40q0 6 4 26l14 58h12q6 -16 18.5 -25t36.5 -9h83q45 0 69 16.5t33 56.5q3 14 3 25q0 53 -70 53h-69q-21 0 -30 5.5t-9 22.5q0 7 3 18l12 50h115
q31 0 47.5 11t23.5 40q2 12 2 17q0 35 -52 35h-115q-21 0 -30 5.5t-9 22.5q0 7 3 18l12 50h171q68 0 104 -31t36 -81q0 -17 -4 -32q-9 -40 -26 -62q-20 -27 -58 -34z" />
    <glyph glyph-name="egrave" unicode="&#xe8;" horiz-adv-x="550" 
d="M342 191l69 294q2 12 2 17q0 18 -22 23l4 15h98q22 0 32 -9t10 -26q0 -7 -4 -29l-98 -417q-3 -12 -3 -19q0 -18 25 -24l-3 -16h-97q-25 0 -35.5 9.5t-10.5 29.5q0 13 5 33h-7l-41 -56q-18 -14 -39.5 -19.5t-67.5 -5.5q-66 0 -97.5 29.5t-31.5 83.5q0 30 9 66l74 315
q2 12 2 17q0 18 -22 23l4 15h98q22 0 32 -9t10 -26q0 -7 -4 -29l-68 -289q-7 -29 -7 -50q0 -27 16 -35.5t56 -8.5q48 0 74.5 25.5t37.5 72.5z" />
    <glyph glyph-name="egrave" unicode="&#x438;" horiz-adv-x="550" 
d="M342 191l69 294q2 12 2 17q0 18 -22 23l4 15h98q22 0 32 -9t10 -26q0 -7 -4 -29l-98 -417q-3 -12 -3 -19q0 -18 25 -24l-3 -16h-97q-25 0 -35.5 9.5t-10.5 29.5q0 13 5 33h-7l-41 -56q-18 -14 -39.5 -19.5t-67.5 -5.5q-66 0 -97.5 29.5t-31.5 83.5q0 30 9 66l74 315
q2 12 2 17q0 18 -22 23l4 15h98q22 0 32 -9t10 -26q0 -7 -4 -29l-68 -289q-7 -29 -7 -50q0 -27 16 -35.5t56 -8.5q48 0 74.5 25.5t37.5 72.5z" />
    <glyph glyph-name="eacute" unicode="&#xe9;" horiz-adv-x="550" 
d="M342 191l69 294q2 12 2 17q0 18 -22 23l4 15h98q22 0 32 -9t10 -26q0 -7 -4 -29l-98 -417q-3 -12 -3 -19q0 -18 25 -24l-3 -16h-97q-25 0 -35.5 9.5t-10.5 29.5q0 13 5 33h-7l-41 -56q-18 -14 -39.5 -19.5t-67.5 -5.5q-66 0 -97.5 29.5t-31.5 83.5q0 30 9 66l74 315
q2 12 2 17q0 18 -22 23l4 15h98q22 0 32 -9t10 -26q0 -7 -4 -29l-68 -289q-7 -29 -7 -50q0 -27 16 -35.5t56 -8.5q48 0 74.5 25.5t37.5 72.5zM444 604h-187q-23 0 -23 18q0 6 3 15l7 37h187q23 0 23 -18q0 -6 -3 -15z" />
    <glyph glyph-name="eacute" unicode="&#x439;" horiz-adv-x="550" 
d="M342 191l69 294q2 12 2 17q0 18 -22 23l4 15h98q22 0 32 -9t10 -26q0 -7 -4 -29l-98 -417q-3 -12 -3 -19q0 -18 25 -24l-3 -16h-97q-25 0 -35.5 9.5t-10.5 29.5q0 13 5 33h-7l-41 -56q-18 -14 -39.5 -19.5t-67.5 -5.5q-66 0 -97.5 29.5t-31.5 83.5q0 30 9 66l74 315
q2 12 2 17q0 18 -22 23l4 15h98q22 0 32 -9t10 -26q0 -7 -4 -29l-68 -289q-7 -29 -7 -50q0 -27 16 -35.5t56 -8.5q48 0 74.5 25.5t37.5 72.5zM444 604h-187q-23 0 -23 18q0 6 3 15l7 37h187q23 0 23 -18q0 -6 -3 -15z" />
    <glyph glyph-name="ecircumflex" unicode="&#xea;" horiz-adv-x="527" 
d="M24 72l130 564q2 12 2 17q0 18 -22 23l4 15h98q22 0 32 -9t10 -26q0 -7 -4 -29l-63 -275l142 136q13 12 13 22q0 11 -17 14l5 16h111q26 0 26 -21q0 -14 -14 -28l-143 -139h31q54 0 83 -25t29 -71v-17q-3 -12 -4 -18l-38 -162q-3 -12 -3 -19q0 -18 25 -24l-3 -16h-97
q-25 0 -35.5 9.5t-10.5 29.5q0 13 5 33l29 122q4 15 4 29q0 39 -51 39h-108l-47 -203q-3 -12 -3 -19q0 -18 25 -24l-3 -16h-97q-25 0 -35.5 9.5t-10.5 29.5q0 13 5 33z" />
    <glyph glyph-name="ecircumflex" unicode="&#x43a;" horiz-adv-x="527" 
d="M24 72l130 564q2 12 2 17q0 18 -22 23l4 15h98q22 0 32 -9t10 -26q0 -7 -4 -29l-63 -275l142 136q13 12 13 22q0 11 -17 14l5 16h111q26 0 26 -21q0 -14 -14 -28l-143 -139h31q54 0 83 -25t29 -71v-17q-3 -12 -4 -18l-38 -162q-3 -12 -3 -19q0 -18 25 -24l-3 -16h-97
q-25 0 -35.5 9.5t-10.5 29.5q0 13 5 33l29 122q4 15 4 29q0 39 -51 39h-108l-47 -203q-3 -12 -3 -19q0 -18 25 -24l-3 -16h-97q-25 0 -35.5 9.5t-10.5 29.5q0 13 5 33z" />
    <glyph glyph-name="edieresis" unicode="&#xeb;" horiz-adv-x="451" 
d="M428 0h-102q-43 0 -43 49l-20 346l-164 -338q-7 -14 -7 -24q0 -13 20 -17l-4 -16h-100q-30 0 -30 21q0 9 6 23l214 431q8 15 8 28q0 18 -21 21l4 16h143q41 0 41 -46l27 -443q0 -19 6 -26t25 -9z" />
    <glyph glyph-name="edieresis" unicode="&#x43b;" horiz-adv-x="451" 
d="M428 0h-102q-43 0 -43 49l-20 346l-164 -338q-7 -14 -7 -24q0 -13 20 -17l-4 -16h-100q-30 0 -30 21q0 9 6 23l214 431q8 15 8 28q0 18 -21 21l4 16h143q41 0 41 -46l27 -443q0 -19 6 -26t25 -9z" />
    <glyph glyph-name="igrave" unicode="&#xec;" horiz-adv-x="654" 
d="M320 242l99 231q9 21 9 32q0 15 -22 19l3 16h125q34 0 47.5 -15.5t13.5 -50.5v-420q0 -21 4.5 -28t22.5 -10l-4 -16h-101q-25 0 -32.5 9.5t-7.5 34.5v319l-155 -363h-99l-35 363l-104 -309q-3 -11 -3 -17q0 -15 22 -21l-3 -16h-105q-23 0 -23 21q0 12 6 27l145 427
q4 11 4 20q0 23 -24 29l4 16h137q27 0 37.5 -11.5t13.5 -44.5z" />
    <glyph glyph-name="igrave" unicode="&#x43c;" horiz-adv-x="654" 
d="M320 242l99 231q9 21 9 32q0 15 -22 19l3 16h125q34 0 47.5 -15.5t13.5 -50.5v-420q0 -21 4.5 -28t22.5 -10l-4 -16h-101q-25 0 -32.5 9.5t-7.5 34.5v319l-155 -363h-99l-35 363l-104 -309q-3 -11 -3 -17q0 -15 22 -21l-3 -16h-105q-23 0 -23 21q0 12 6 27l145 427
q4 11 4 20q0 23 -24 29l4 16h137q27 0 37.5 -11.5t13.5 -44.5z" />
    <glyph glyph-name="iacute" unicode="&#xed;" horiz-adv-x="558" 
d="M210 332h172l36 153q2 12 2 17q0 18 -22 23l4 15h98q22 0 32 -9t10 -26q0 -7 -4 -29l-98 -417q-3 -12 -3 -19q0 -18 25 -24l-3 -16h-97q-25 0 -35.5 9.5t-10.5 29.5q0 13 5 33l39 164h-172l-42 -177q-3 -12 -3 -19q0 -18 25 -24l-3 -16h-97q-25 0 -35.5 9.5t-10.5 29.5
q0 13 5 33l97 413q2 12 2 17q0 18 -22 23l4 15h98q22 0 32 -9t10 -26q0 -7 -4 -29z" />
    <glyph glyph-name="iacute" unicode="&#x43d;" horiz-adv-x="558" 
d="M210 332h172l36 153q2 12 2 17q0 18 -22 23l4 15h98q22 0 32 -9t10 -26q0 -7 -4 -29l-98 -417q-3 -12 -3 -19q0 -18 25 -24l-3 -16h-97q-25 0 -35.5 9.5t-10.5 29.5q0 13 5 33l39 164h-172l-42 -177q-3 -12 -3 -19q0 -18 25 -24l-3 -16h-97q-25 0 -35.5 9.5t-10.5 29.5
q0 13 5 33l97 413q2 12 2 17q0 18 -22 23l4 15h98q22 0 32 -9t10 -26q0 -7 -4 -29z" />
    <glyph glyph-name="icircumflex" unicode="&#xee;" horiz-adv-x="530" 
d="M208 -7q-91 0 -136 39q-48 42 -48 133q0 48 15 116q36 154 96 211t190 57q93 0 137.5 -46t44.5 -132q0 -46 -14 -107q-39 -161 -99 -216t-186 -55zM225 94q54 0 82 33q32 37 59 145q15 60 15 99q0 77 -75 77q-56 0 -83 -31q-31 -35 -56 -140q-16 -72 -16 -107
q0 -41 17.5 -58.5t56.5 -17.5z" />
    <glyph glyph-name="icircumflex" unicode="&#x43e;" horiz-adv-x="530" 
d="M208 -7q-91 0 -136 39q-48 42 -48 133q0 48 15 116q36 154 96 211t190 57q93 0 137.5 -46t44.5 -132q0 -46 -14 -107q-39 -161 -99 -216t-186 -55zM225 94q54 0 82 33q32 37 59 145q15 60 15 99q0 77 -75 77q-56 0 -83 -31q-31 -35 -56 -140q-16 -72 -16 -107
q0 -41 17.5 -58.5t56.5 -17.5z" />
    <glyph glyph-name="idieresis" unicode="&#xef;" horiz-adv-x="542" 
d="M208 348l-68 -289q-3 -12 -3 -19q0 -18 25 -24l-3 -16h-97q-25 0 -35.5 9.5t-10.5 29.5q0 13 5 33l97 413q2 12 2 17q0 18 -22 23l4 15h98q42 0 42 -34q0 -7 -4 -27h8l35 42q21 16 42 22t68 6q68 0 99.5 -25.5t31.5 -78.5q0 -26 -8 -63l-76 -323q-3 -12 -3 -19
q0 -18 25 -24l-3 -16h-97q-25 0 -35.5 9.5t-10.5 29.5q0 13 5 33l66 281q7 27 7 47q0 28 -16.5 38t-56.5 10q-45 0 -72.5 -26.5t-38.5 -73.5z" />
    <glyph glyph-name="idieresis" unicode="&#x43f;" horiz-adv-x="542" 
d="M208 348l-68 -289q-3 -12 -3 -19q0 -18 25 -24l-3 -16h-97q-25 0 -35.5 9.5t-10.5 29.5q0 13 5 33l97 413q2 12 2 17q0 18 -22 23l4 15h98q42 0 42 -34q0 -7 -4 -27h8l35 42q21 16 42 22t68 6q68 0 99.5 -25.5t31.5 -78.5q0 -26 -8 -63l-76 -323q-3 -12 -3 -19
q0 -18 25 -24l-3 -16h-97q-25 0 -35.5 9.5t-10.5 29.5q0 13 5 33l66 281q7 27 7 47q0 28 -16.5 38t-56.5 10q-45 0 -72.5 -26.5t-38.5 -73.5z" />
    <glyph glyph-name="eth" unicode="&#xf0;" horiz-adv-x="555" 
d="M161 100h55q77 0 109 33t59 144q14 61 14 94q0 77 -74 77q-43 0 -67.5 -23.5t-39.5 -87.5zM-2 -75l131 560q2 12 2 17q0 18 -22 23l4 15h98q23 0 32.5 -9t9.5 -27q0 -10 -3 -22h8l39 48q15 11 34 15t48 4q149 0 149 -167q0 -48 -14 -113q-36 -163 -98 -219
q-55 -50 -178 -50h-101l-20 -88q-3 -12 -3 -19q0 -18 25 -24l-3 -16h-97q-25 0 -35.5 9.5t-10.5 29.5q0 13 5 33z" />
    <glyph glyph-name="eth" unicode="&#x440;" horiz-adv-x="555" 
d="M161 100h55q77 0 109 33t59 144q14 61 14 94q0 77 -74 77q-43 0 -67.5 -23.5t-39.5 -87.5zM-2 -75l131 560q2 12 2 17q0 18 -22 23l4 15h98q23 0 32.5 -9t9.5 -27q0 -10 -3 -22h8l39 48q15 11 34 15t48 4q149 0 149 -167q0 -48 -14 -113q-36 -163 -98 -219
q-55 -50 -178 -50h-101l-20 -88q-3 -12 -3 -19q0 -18 25 -24l-3 -16h-97q-25 0 -35.5 9.5t-10.5 29.5q0 13 5 33z" />
    <glyph glyph-name="ntilde" unicode="&#xf1;" horiz-adv-x="482" 
d="M308 444q-53 0 -82 -34q-33 -38 -56 -138q-17 -73 -17 -108q0 -40 20 -55t67 -15h63q39 0 56 4.5t32 21.5h14l-13 -54q-10 -42 -37.5 -57.5t-95.5 -15.5h-64q-82 0 -124 36q-47 40 -47 127q0 44 14 108q36 156 107 224q54 52 125 52h192l-15 -63q-7 -33 -44 -33h-95z" />
    <glyph glyph-name="ntilde" unicode="&#x441;" horiz-adv-x="482" 
d="M308 444q-53 0 -82 -34q-33 -38 -56 -138q-17 -73 -17 -108q0 -40 20 -55t67 -15h63q39 0 56 4.5t32 21.5h14l-13 -54q-10 -42 -37.5 -57.5t-95.5 -15.5h-64q-82 0 -124 36q-47 40 -47 127q0 44 14 108q36 156 107 224q54 52 125 52h192l-15 -63q-7 -33 -44 -33h-95z" />
    <glyph glyph-name="ograve" unicode="&#xf2;" horiz-adv-x="817" 
d="M208 352l-69 -293q-3 -12 -3 -19q0 -18 25 -24l-3 -16h-97q-25 0 -35.5 9.5t-10.5 29.5q0 13 5 33l97 413q2 12 2 17q0 18 -22 23l4 15h98q22 0 32 -9t10 -26q0 -7 -4 -29h7l38 48q17 12 43.5 18.5t72.5 6.5q49 0 74.5 -17.5t35.5 -56.5l42 49q22 14 39 18q27 7 82 7
q59 0 87 -29t28 -81q0 -29 -7 -57l-76 -323q-3 -12 -3 -19q0 -18 25 -24l-3 -16h-97q-25 0 -35.5 9.5t-10.5 29.5q0 13 5 33l72 306q4 15 4 28q0 42 -58 42q-50 0 -74.5 -20t-37.5 -76l-69 -293q-3 -12 -3 -19q0 -18 25 -24l-3 -16h-97q-25 0 -35.5 9.5t-10.5 29.5
q0 13 5 33l72 306q4 15 4 28q0 42 -58 42q-50 0 -74.5 -20t-37.5 -76z" />
    <glyph glyph-name="ograve" unicode="&#x442;" horiz-adv-x="817" 
d="M208 352l-69 -293q-3 -12 -3 -19q0 -18 25 -24l-3 -16h-97q-25 0 -35.5 9.5t-10.5 29.5q0 13 5 33l97 413q2 12 2 17q0 18 -22 23l4 15h98q22 0 32 -9t10 -26q0 -7 -4 -29h7l38 48q17 12 43.5 18.5t72.5 6.5q49 0 74.5 -17.5t35.5 -56.5l42 49q22 14 39 18q27 7 82 7
q59 0 87 -29t28 -81q0 -29 -7 -57l-76 -323q-3 -12 -3 -19q0 -18 25 -24l-3 -16h-97q-25 0 -35.5 9.5t-10.5 29.5q0 13 5 33l72 306q4 15 4 28q0 42 -58 42q-50 0 -74.5 -20t-37.5 -76l-69 -293q-3 -12 -3 -19q0 -18 25 -24l-3 -16h-97q-25 0 -35.5 9.5t-10.5 29.5
q0 13 5 33l72 306q4 15 4 28q0 42 -58 42q-50 0 -74.5 -20t-37.5 -76z" />
    <glyph glyph-name="oacute" unicode="&#xf3;" horiz-adv-x="550" 
d="M349 220l62 265q2 12 2 17q0 18 -22 23l4 15h98q22 0 32 -9t10 -26q0 -7 -4 -29l-105 -452q-19 -82 -62 -123q-50 -48 -140 -48h-149q-37 0 -57 11t-20 40q0 6 4 26l14 58h12q6 -16 18.5 -25t36.5 -9h120q45 0 70.5 21.5t36.5 71.5l11 54h-7l-41 -56q-18 -14 -39.5 -19.5
t-67.5 -5.5q-66 0 -97.5 29.5t-31.5 83.5q0 30 9 66l67 286q2 12 2 17q0 18 -22 23l4 15h98q22 0 32 -9t10 -26q0 -7 -4 -29l-61 -260q-7 -29 -7 -50q0 -27 16 -35.5t56 -8.5q48 0 74.5 25.5t37.5 72.5z" />
    <glyph glyph-name="oacute" unicode="&#x443;" horiz-adv-x="550" 
d="M349 220l62 265q2 12 2 17q0 18 -22 23l4 15h98q22 0 32 -9t10 -26q0 -7 -4 -29l-105 -452q-19 -82 -62 -123q-50 -48 -140 -48h-149q-37 0 -57 11t-20 40q0 6 4 26l14 58h12q6 -16 18.5 -25t36.5 -9h120q45 0 70.5 21.5t36.5 71.5l11 54h-7l-41 -56q-18 -14 -39.5 -19.5
t-67.5 -5.5q-66 0 -97.5 29.5t-31.5 83.5q0 30 9 66l67 286q2 12 2 17q0 18 -22 23l4 15h98q22 0 32 -9t10 -26q0 -7 -4 -29l-61 -260q-7 -29 -7 -50q0 -27 16 -35.5t56 -8.5q48 0 74.5 25.5t37.5 72.5z" />
    <glyph glyph-name="ocircumflex" unicode="&#xf4;" horiz-adv-x="794" 
d="M381 444h-56q-60 0 -95 -36q-38 -40 -61 -134q-9 -39 -14 -68t-5 -49q0 -35 15 -49t49 -14q51 0 73 22t37 85zM402 540l24 96q2 12 2 17q0 18 -22 23l4 15h98q22 0 32 -9t10 -26q0 -7 -4 -29l-21 -87h64q82 0 132.5 -49.5t50.5 -140.5q0 -25 -2 -43t-9 -45
q-37 -158 -100 -218q-53 -51 -148 -51q-36 0 -58.5 18.5t-31.5 60.5h-8l-38 -160q-3 -12 -3 -19q0 -18 25 -24l-3 -16h-97q-25 0 -35.5 9.5t-10.5 29.5q0 13 5 33l35 147h-7l-44 -56q-26 -17 -42.5 -20t-48.5 -3q-131 0 -131 146q0 57 19 136q37 158 119 219q62 46 164 46
h80zM554 444h-52l-57 -243q-4 -17 -6 -29.5t-2 -25.5q0 -27 12.5 -39.5t37.5 -12.5q59 0 88.5 34t55.5 143q11 45 11 83q0 90 -88 90z" />
    <glyph glyph-name="ocircumflex" unicode="&#x444;" horiz-adv-x="794" 
d="M381 444h-56q-60 0 -95 -36q-38 -40 -61 -134q-9 -39 -14 -68t-5 -49q0 -35 15 -49t49 -14q51 0 73 22t37 85zM402 540l24 96q2 12 2 17q0 18 -22 23l4 15h98q22 0 32 -9t10 -26q0 -7 -4 -29l-21 -87h64q82 0 132.5 -49.5t50.5 -140.5q0 -25 -2 -43t-9 -45
q-37 -158 -100 -218q-53 -51 -148 -51q-36 0 -58.5 18.5t-31.5 60.5h-8l-38 -160q-3 -12 -3 -19q0 -18 25 -24l-3 -16h-97q-25 0 -35.5 9.5t-10.5 29.5q0 13 5 33l35 147h-7l-44 -56q-26 -17 -42.5 -20t-48.5 -3q-131 0 -131 146q0 57 19 136q37 158 119 219q62 46 164 46
h80zM554 444h-52l-57 -243q-4 -17 -6 -29.5t-2 -25.5q0 -27 12.5 -39.5t37.5 -12.5q59 0 88.5 34t55.5 143q11 45 11 83q0 90 -88 90z" />
    <glyph glyph-name="otilde" unicode="&#xf5;" horiz-adv-x="513" 
d="M196 288l-84 193q-9 22 -15 29q-10 12 -28 14l5 16h96q25 0 36.5 -8.5t22.5 -34.5l49 -112l89 100q12 14 12 24q0 12 -19 15l4 16h124q26 0 26 -18q0 -12 -14 -28l-178 -206l110 -248q6 -14 11 -18t21 -6l-4 -16h-98q-24 0 -36 9.5t-23 34.5l-64 148l-118 -137
q-10 -11 -10 -21q0 -14 22 -18l-5 -16h-126q-11 0 -17 6t-6 15q0 12 7 19z" />
    <glyph glyph-name="otilde" unicode="&#x445;" horiz-adv-x="513" 
d="M196 288l-84 193q-9 22 -15 29q-10 12 -28 14l5 16h96q25 0 36.5 -8.5t22.5 -34.5l49 -112l89 100q12 14 12 24q0 12 -19 15l4 16h124q26 0 26 -18q0 -12 -14 -28l-178 -206l110 -248q6 -14 11 -18t21 -6l-4 -16h-98q-24 0 -36 9.5t-23 34.5l-64 148l-118 -137
q-10 -11 -10 -21q0 -14 22 -18l-5 -16h-126q-11 0 -17 6t-6 15q0 12 7 19z" />
    <glyph glyph-name="odieresis" unicode="&#xf6;" horiz-adv-x="550" 
d="M314 72h-7l-41 -56q-18 -14 -39.5 -19.5t-67.5 -5.5q-66 0 -97.5 29.5t-31.5 83.5q0 30 9 66l74 315q2 12 2 17q0 18 -22 23l4 15h98q22 0 32 -9t10 -26q0 -7 -4 -29l-68 -289q-7 -29 -7 -50q0 -27 16 -35.5t56 -8.5q48 0 74.5 25.5t37.5 72.5l69 294q2 12 2 17
q0 18 -22 23l4 15h98q22 0 32 -9t10 -26q0 -7 -4 -29l-73 -310q-11 -47 -11 -66q0 -28 33 -28q16 0 42 3l-42 -179q-6 -25 -16 -34t-34 -9h-29q-36 0 -36 22q0 13 9 40l26 76q-39 0 -61 18q-25 21 -25 63z" />
    <glyph glyph-name="odieresis" unicode="&#x446;" horiz-adv-x="550" 
d="M314 72h-7l-41 -56q-18 -14 -39.5 -19.5t-67.5 -5.5q-66 0 -97.5 29.5t-31.5 83.5q0 30 9 66l74 315q2 12 2 17q0 18 -22 23l4 15h98q22 0 32 -9t10 -26q0 -7 -4 -29l-68 -289q-7 -29 -7 -50q0 -27 16 -35.5t56 -8.5q48 0 74.5 25.5t37.5 72.5l69 294q2 12 2 17
q0 18 -22 23l4 15h98q22 0 32 -9t10 -26q0 -7 -4 -29l-73 -310q-11 -47 -11 -66q0 -28 33 -28q16 0 42 3l-42 -179q-6 -25 -16 -34t-34 -9h-29q-36 0 -36 22q0 13 9 40l26 76q-39 0 -61 18q-25 21 -25 63z" />
    <glyph glyph-name="divide" unicode="&#xf7;" horiz-adv-x="537" 
d="M515 476l-98 -417q-3 -12 -3 -19q0 -18 25 -24l-3 -16h-97q-25 0 -35.5 9.5t-10.5 29.5q0 13 5 33l35 147h-137q-60 0 -91 23q-35 26 -35 78q0 21 6 48l27 117q2 12 2 17q0 18 -22 23l4 15h98q22 0 32 -9t10 -26q0 -7 -4 -29l-22 -97q-4 -16 -4 -29q0 -19 12.5 -27
t42.5 -8h104l39 170q2 12 2 17q0 18 -22 23l4 15h98q22 0 32 -9t10 -26q0 -7 -4 -29z" />
    <glyph glyph-name="divide" unicode="&#x447;" horiz-adv-x="537" 
d="M515 476l-98 -417q-3 -12 -3 -19q0 -18 25 -24l-3 -16h-97q-25 0 -35.5 9.5t-10.5 29.5q0 13 5 33l35 147h-137q-60 0 -91 23q-35 26 -35 78q0 21 6 48l27 117q2 12 2 17q0 18 -22 23l4 15h98q22 0 32 -9t10 -26q0 -7 -4 -29l-22 -97q-4 -16 -4 -29q0 -19 12.5 -27
t42.5 -8h104l39 170q2 12 2 17q0 18 -22 23l4 15h98q22 0 32 -9t10 -26q0 -7 -4 -29z" />
    <glyph glyph-name="oslash" unicode="&#xf8;" horiz-adv-x="811" 
d="M598 188l70 297q2 12 2 17q0 18 -22 23l4 15h98q22 0 32 -9t10 -26q0 -7 -4 -29l-98 -417q-3 -12 -3 -19q0 -18 25 -24l-3 -16h-97q-25 0 -35.5 9.5t-10.5 29.5q0 13 5 33h-8l-39 -56q-17 -12 -43.5 -18.5t-72.5 -6.5q-49 0 -74.5 17.5t-35.5 56.5l-42 -49
q-22 -14 -44 -19.5t-77 -5.5q-59 0 -87 29t-28 81q0 29 7 57l77 327q2 12 2 17q0 18 -22 23l4 15h98q22 0 32 -9t10 -26q0 -7 -4 -29l-74 -314q-4 -15 -4 -28q0 -42 58 -42q50 0 74.5 20t37.5 76l70 297q2 12 2 17q0 18 -22 23l4 15h98q22 0 32 -9t10 -26q0 -7 -4 -29
l-74 -314q-4 -15 -4 -28q0 -42 58 -42q50 0 74.5 20t37.5 76z" />
    <glyph glyph-name="oslash" unicode="&#x448;" horiz-adv-x="811" 
d="M598 188l70 297q2 12 2 17q0 18 -22 23l4 15h98q22 0 32 -9t10 -26q0 -7 -4 -29l-98 -417q-3 -12 -3 -19q0 -18 25 -24l-3 -16h-97q-25 0 -35.5 9.5t-10.5 29.5q0 13 5 33h-8l-39 -56q-17 -12 -43.5 -18.5t-72.5 -6.5q-49 0 -74.5 17.5t-35.5 56.5l-42 -49
q-22 -14 -44 -19.5t-77 -5.5q-59 0 -87 29t-28 81q0 29 7 57l77 327q2 12 2 17q0 18 -22 23l4 15h98q22 0 32 -9t10 -26q0 -7 -4 -29l-74 -314q-4 -15 -4 -28q0 -42 58 -42q50 0 74.5 20t37.5 76l70 297q2 12 2 17q0 18 -22 23l4 15h98q22 0 32 -9t10 -26q0 -7 -4 -29
l-74 -314q-4 -15 -4 -28q0 -42 58 -42q50 0 74.5 20t37.5 76z" />
    <glyph glyph-name="ugrave" unicode="&#xf9;" horiz-adv-x="811" 
d="M598 188l70 297q2 12 2 17q0 18 -22 23l4 15h98q22 0 32 -9t10 -26q0 -7 -4 -29l-73 -310q-11 -47 -11 -66q0 -28 33 -28q16 0 42 3l-42 -179q-6 -25 -16 -34t-34 -9h-29q-36 0 -36 22q0 13 9 40l26 76q-39 0 -61 18q-25 21 -25 63h-8l-39 -56q-17 -12 -43.5 -18.5
t-72.5 -6.5q-49 0 -74.5 17.5t-35.5 56.5l-42 -49q-22 -14 -44 -19.5t-77 -5.5q-59 0 -87 29t-28 81q0 29 7 57l77 327q2 12 2 17q0 18 -22 23l4 15h98q22 0 32 -9t10 -26q0 -7 -4 -29l-74 -314q-4 -15 -4 -28q0 -42 58 -42q50 0 74.5 20t37.5 76l70 297q2 12 2 17
q0 18 -22 23l4 15h98q22 0 32 -9t10 -26q0 -7 -4 -29l-74 -314q-4 -15 -4 -28q0 -42 58 -42q50 0 74.5 20t37.5 76z" />
    <glyph glyph-name="ugrave" unicode="&#x449;" horiz-adv-x="811" 
d="M598 188l70 297q2 12 2 17q0 18 -22 23l4 15h98q22 0 32 -9t10 -26q0 -7 -4 -29l-73 -310q-11 -47 -11 -66q0 -28 33 -28q16 0 42 3l-42 -179q-6 -25 -16 -34t-34 -9h-29q-36 0 -36 22q0 13 9 40l26 76q-39 0 -61 18q-25 21 -25 63h-8l-39 -56q-17 -12 -43.5 -18.5
t-72.5 -6.5q-49 0 -74.5 17.5t-35.5 56.5l-42 -49q-22 -14 -44 -19.5t-77 -5.5q-59 0 -87 29t-28 81q0 29 7 57l77 327q2 12 2 17q0 18 -22 23l4 15h98q22 0 32 -9t10 -26q0 -7 -4 -29l-74 -314q-4 -15 -4 -28q0 -42 58 -42q50 0 74.5 20t37.5 76l70 297q2 12 2 17
q0 18 -22 23l4 15h98q22 0 32 -9t10 -26q0 -7 -4 -29l-74 -314q-4 -15 -4 -28q0 -42 58 -42q50 0 74.5 20t37.5 76z" />
    <glyph glyph-name="uacute" unicode="&#xfa;" horiz-adv-x="488" 
d="M238 476l-32 -138h82q79 0 122 -29.5t43 -91.5q0 -27 -7 -55q-24 -99 -72 -133q-41 -29 -136 -29h-176q-25 0 -35.5 9.5t-10.5 29.5q0 13 5 33l87 372h-58q-21 0 -30 5.5t-9 22.5q0 7 3 18l12 50h174q22 0 32 -9t10 -26q0 -7 -4 -29zM149 96h76q43 0 62 12q24 16 35 62
q2 7 3 15.5t1 15.5q0 21 -15 31t-52 10h-75z" />
    <glyph glyph-name="uacute" unicode="&#x44a;" horiz-adv-x="488" 
d="M238 476l-32 -138h82q79 0 122 -29.5t43 -91.5q0 -27 -7 -55q-24 -99 -72 -133q-41 -29 -136 -29h-176q-25 0 -35.5 9.5t-10.5 29.5q0 13 5 33l87 372h-58q-21 0 -30 5.5t-9 22.5q0 7 3 18l12 50h174q22 0 32 -9t10 -26q0 -7 -4 -29zM149 96h76q43 0 62 12q24 16 35 62
q2 7 3 15.5t1 15.5q0 21 -15 31t-52 10h-75z" />
    <glyph glyph-name="ucircumflex" unicode="&#xfb;" horiz-adv-x="731" 
d="M238 476l-32 -138h82q79 0 122 -29.5t43 -91.5q0 -27 -7 -55q-24 -99 -72 -133q-41 -29 -136 -29h-176q-25 0 -35.5 9.5t-10.5 29.5q0 13 5 33l97 413q2 12 2 17q0 18 -22 23l4 15h98q22 0 32 -9t10 -26q0 -7 -4 -29zM149 96h76q43 0 62 12q24 16 35 62q2 7 3 15.5
t1 15.5q0 21 -15 31t-52 10h-75zM713 476l-98 -417q-3 -12 -3 -19q0 -18 25 -24l-3 -16h-97q-25 0 -35.5 9.5t-10.5 29.5q0 13 5 33l97 413q2 12 2 17q0 18 -22 23l4 15h98q22 0 32 -9t10 -26q0 -7 -4 -29z" />
    <glyph glyph-name="ucircumflex" unicode="&#x44b;" horiz-adv-x="731" 
d="M238 476l-32 -138h82q79 0 122 -29.5t43 -91.5q0 -27 -7 -55q-24 -99 -72 -133q-41 -29 -136 -29h-176q-25 0 -35.5 9.5t-10.5 29.5q0 13 5 33l97 413q2 12 2 17q0 18 -22 23l4 15h98q22 0 32 -9t10 -26q0 -7 -4 -29zM149 96h76q43 0 62 12q24 16 35 62q2 7 3 15.5
t1 15.5q0 21 -15 31t-52 10h-75zM713 476l-98 -417q-3 -12 -3 -19q0 -18 25 -24l-3 -16h-97q-25 0 -35.5 9.5t-10.5 29.5q0 13 5 33l97 413q2 12 2 17q0 18 -22 23l4 15h98q22 0 32 -9t10 -26q0 -7 -4 -29z" />
    <glyph glyph-name="udieresis" unicode="&#xfc;" horiz-adv-x="488" 
d="M238 476l-32 -138h82q79 0 122 -29.5t43 -91.5q0 -27 -7 -55q-24 -99 -72 -133q-41 -29 -136 -29h-176q-25 0 -35.5 9.5t-10.5 29.5q0 13 5 33l97 413q2 12 2 17q0 18 -22 23l4 15h98q22 0 32 -9t10 -26q0 -7 -4 -29zM149 96h76q43 0 62 12q24 16 35 62q2 7 3 15.5
t1 15.5q0 21 -15 31t-52 10h-75z" />
    <glyph glyph-name="udieresis" unicode="&#x44c;" horiz-adv-x="488" 
d="M238 476l-32 -138h82q79 0 122 -29.5t43 -91.5q0 -27 -7 -55q-24 -99 -72 -133q-41 -29 -136 -29h-176q-25 0 -35.5 9.5t-10.5 29.5q0 13 5 33l97 413q2 12 2 17q0 18 -22 23l4 15h98q22 0 32 -9t10 -26q0 -7 -4 -29zM149 96h76q43 0 62 12q24 16 35 62q2 7 3 15.5
t1 15.5q0 21 -15 31t-52 10h-75z" />
    <glyph glyph-name="yacute" unicode="&#xfd;" horiz-adv-x="470" 
d="M133 540h145q84 0 126.5 -36.5t42.5 -121.5q0 -47 -15 -115q-36 -154 -92 -214t-173 -60h-72q-37 0 -57 11t-20 40q0 6 4 26l14 58h12q6 -16 18.5 -25t36.5 -9h71q49 0 75 32q23 28 45 108h-148q-21 0 -30 5.5t-9 22.5q0 7 3 18l12 50h196q5 25 5 40q0 39 -22 56.5
t-61 17.5h-83q-21 0 -30 5.5t-9 22.5q0 7 3 18z" />
    <glyph glyph-name="yacute" unicode="&#x44d;" horiz-adv-x="470" 
d="M133 540h145q84 0 126.5 -36.5t42.5 -121.5q0 -47 -15 -115q-36 -154 -92 -214t-173 -60h-72q-37 0 -57 11t-20 40q0 6 4 26l14 58h12q6 -16 18.5 -25t36.5 -9h71q49 0 75 32q23 28 45 108h-148q-21 0 -30 5.5t-9 22.5q0 7 3 18l12 50h196q5 25 5 40q0 39 -22 56.5
t-61 17.5h-83q-21 0 -30 5.5t-9 22.5q0 7 3 18z" />
    <glyph glyph-name="thorn" unicode="&#xfe;" horiz-adv-x="768" 
d="M199 332h91q35 122 94.5 169.5t178.5 47.5q93 0 137.5 -46t44.5 -132q0 -46 -14 -107q-39 -161 -99 -216t-186 -55q-91 0 -136 39q-48 42 -48 133q0 32 6 71h-91l-42 -177q-3 -12 -3 -19q0 -18 25 -24l-3 -16h-97q-25 0 -35.5 9.5t-10.5 29.5q0 13 5 33l97 413q2 12 2 17
q0 18 -22 23l4 15h98q22 0 32 -9t10 -26q0 -7 -4 -29zM463 94q54 0 82 33q32 37 59 145q15 60 15 99q0 77 -75 77q-56 0 -83 -31q-31 -35 -56 -140q-16 -72 -16 -107q0 -41 17.5 -58.5t56.5 -17.5z" />
    <glyph glyph-name="thorn" unicode="&#x44e;" horiz-adv-x="768" 
d="M199 332h91q35 122 94.5 169.5t178.5 47.5q93 0 137.5 -46t44.5 -132q0 -46 -14 -107q-39 -161 -99 -216t-186 -55q-91 0 -136 39q-48 42 -48 133q0 32 6 71h-91l-42 -177q-3 -12 -3 -19q0 -18 25 -24l-3 -16h-97q-25 0 -35.5 9.5t-10.5 29.5q0 13 5 33l97 413q2 12 2 17
q0 18 -22 23l4 15h98q22 0 32 -9t10 -26q0 -7 -4 -29zM463 94q54 0 82 33q32 37 59 145q15 60 15 99q0 77 -75 77q-56 0 -83 -31q-31 -35 -56 -140q-16 -72 -16 -107q0 -41 17.5 -58.5t56.5 -17.5z" />
    <glyph glyph-name="ydieresis" unicode="&#xff;" horiz-adv-x="501" 
d="M39 96l97 120q-39 12 -61.5 42t-22.5 77q0 9 1.5 20.5t5.5 32.5q20 85 63.5 118.5t131.5 33.5h185q25 0 35.5 -9.5t10.5 -29.5q0 -13 -5 -33l-96 -409q-3 -12 -3 -19q0 -18 25 -24l-3 -16h-97q-25 0 -35.5 9.5t-10.5 29.5q0 13 5 33l30 130h-32l-130 -157
q-22 -26 -38.5 -35.5t-43.5 -9.5h-39q-21 0 -30 5.5t-9 22.5q0 7 3 18l12 50h51zM352 444h-76q-43 0 -62 -12q-24 -16 -35 -62q-4 -16 -4 -31q0 -21 15 -31t52 -10h75z" />
    <glyph glyph-name="ydieresis" unicode="&#x44f;" horiz-adv-x="501" 
d="M39 96l97 120q-39 12 -61.5 42t-22.5 77q0 9 1.5 20.5t5.5 32.5q20 85 63.5 118.5t131.5 33.5h185q25 0 35.5 -9.5t10.5 -29.5q0 -13 -5 -33l-96 -409q-3 -12 -3 -19q0 -18 25 -24l-3 -16h-97q-25 0 -35.5 9.5t-10.5 29.5q0 13 5 33l30 130h-32l-130 -157
q-22 -26 -38.5 -35.5t-43.5 -9.5h-39q-21 0 -30 5.5t-9 22.5q0 7 3 18l12 50h51zM352 444h-76q-43 0 -62 -12q-24 -16 -35 -62q-4 -16 -4 -31q0 -21 15 -31t52 -10h75z" />
    <glyph glyph-name="endash" unicode="&#x2013;" horiz-adv-x="556" 
d="M556 313v-73h-556v73h556z" />
    <glyph glyph-name="emdash" unicode="&#x2014;" horiz-adv-x="1000" 
d="M1000 313v-73h-1000v73h1000z" />
    <glyph glyph-name="quoteleft" unicode="&#x2018;" horiz-adv-x="205" 
d="M146 513h-86q-33 0 -33 24q0 4 2 18l18 78q13 58 70 58h50q16 0 11 -21l-6 -25h-50q-18 0 -22 -17l-4 -17h34q31 0 31 -26q0 -10 -2 -17z" />
    <glyph glyph-name="quoteright" unicode="&#x2019;" horiz-adv-x="208" 
d="M63 691h86q33 0 33 -24q0 -11 -2 -18l-18 -78q-13 -58 -70 -58h-50q-16 0 -11 21l6 25h50q18 0 22 17l4 17h-34q-31 0 -31 26q0 10 2 17z" />
    <glyph glyph-name="quotesinglbase" unicode="&#x201a;" horiz-adv-x="172" 
d="M40 98h86q33 0 33 -24q0 -11 -2 -18l-18 -78q-13 -58 -70 -58h-50q-16 0 -11 21l6 25h50q18 0 22 17l4 17h-34q-31 0 -31 26q0 10 2 17z" />
    <glyph glyph-name="quotedblleft" unicode="&#x201c;" horiz-adv-x="397" 
d="M338 513h-86q-33 0 -33 24q0 4 2 18l18 78q13 58 70 58h50q16 0 11 -21l-6 -25h-50q-18 0 -22 -17l-4 -17h34q31 0 31 -26q0 -10 -2 -17zM146 513h-86q-33 0 -33 24q0 4 2 18l18 78q13 58 70 58h50q16 0 11 -21l-6 -25h-50q-18 0 -22 -17l-4 -17h34q31 0 31 -26
q0 -10 -2 -17z" />
    <glyph glyph-name="quotedblright" unicode="&#x201d;" horiz-adv-x="393" 
d="M63 691h86q33 0 33 -24q0 -11 -2 -18l-18 -78q-13 -58 -70 -58h-50q-16 0 -11 21l6 25h50q18 0 22 17l4 17h-34q-31 0 -31 26q0 10 2 17zM255 691h86q33 0 33 -24q0 -11 -2 -18l-18 -78q-13 -58 -70 -58h-50q-16 0 -11 21l6 25h50q18 0 22 17l4 17h-34q-31 0 -31 26
q0 10 2 17z" />
    <glyph glyph-name="quotedblbase" unicode="&#x201e;" horiz-adv-x="369" 
d="M40 98h86q33 0 33 -24q0 -11 -2 -18l-18 -78q-13 -58 -70 -58h-50q-16 0 -11 21l6 25h50q18 0 22 17l4 17h-34q-31 0 -31 26q0 10 2 17zM232 98h86q33 0 33 -24q0 -11 -2 -18l-18 -78q-13 -58 -70 -58h-50q-16 0 -11 21l6 25h50q18 0 22 17l4 17h-34q-31 0 -31 26
q0 10 2 17z" />
    <glyph glyph-name="bullet" unicode="&#x2022;" horiz-adv-x="350" 
d="M10 375q0 68 48 116t117 48t117 -47t48 -117t-48 -118t-117 -48q-70 0 -117.5 47.5t-47.5 118.5z" />
    <glyph glyph-name="ellipsis" unicode="&#x2026;" horiz-adv-x="524" 
d="M135 0h-83q-34 0 -34 27q0 12 2 19l12 52h83q35 0 35 -25q0 -10 -2 -17zM315 0h-83q-34 0 -34 27q0 12 2 19l12 52h83q35 0 35 -25q0 -10 -2 -17zM495 0h-83q-34 0 -34 27q0 12 2 19l12 52h83q35 0 35 -25q0 -10 -2 -17z" />
    <glyph glyph-name="perthousand" unicode="&#x2030;" horiz-adv-x="1041" 
d="M66 24l479 667h73q15 0 15 -11q0 -7 -5 -15l-478 -665h-72q-16 0 -16 12q2 9 4 12zM471 -9q-61 0 -91.5 27t-30.5 89q0 25 4 45l6 30q24 101 64 139t125 38q61 0 91 -31t30 -87q0 -32 -9 -71q-27 -107 -66 -143t-123 -36zM482 58q35 0 55.5 23.5t37.5 94.5q11 42 11 66
q0 50 -49 50q-37 0 -56.5 -21.5t-35.5 -91.5q-5 -21 -8 -39.5t-3 -33.5q0 -48 48 -48zM143 333q-61 0 -91.5 27t-30.5 89q0 25 4 45l6 30q24 101 64 139t125 38q61 0 91 -31t30 -87q0 -32 -9 -71q-27 -107 -66 -143t-123 -36zM154 400q35 0 55.5 23.5t37.5 94.5q11 42 11 66
q0 50 -49 50q-37 0 -56.5 -21.5t-35.5 -91.5q-5 -21 -8 -39.5t-3 -33.5q0 -48 48 -48zM818 -9q-61 0 -91.5 27t-30.5 89q0 25 4 45l6 30q24 101 64 139t125 38q61 0 91 -31t30 -87q0 -32 -9 -71q-27 -107 -66 -143t-123 -36zM829 58q35 0 55.5 23.5t37.5 94.5q11 42 11 66
q0 50 -49 50q-37 0 -56.5 -21.5t-35.5 -91.5q-5 -21 -8 -39.5t-3 -33.5q0 -48 48 -48z" />
    <glyph glyph-name="guilsinglleft" unicode="&#x2039;" horiz-adv-x="258" 
d="M42 315l201 110l-26 -126l-102 -58l76 -63l-25 -126l-156 119z" />
    <glyph glyph-name="guilsinglright" unicode="&#x203a;" horiz-adv-x="265" 
d="M82 425l156 -110l-32 -144l-203 -119l28 135l104 61l-79 51z" />
    <glyph glyph-name="trademark" unicode="&#x2122;" horiz-adv-x="703" 
d="M78 691h199q19 0 25.5 2.5t14.5 14.5h11l-12 -53q-8 -28 -36 -28h-64l-71 -298q-4 -25 13 -28l-2 -10h-68q-23 0 -23 24q0 4 2 12l70 300h-57q-18 0 -25 -3t-15 -15h-11l13 54q6 28 36 28zM546 691h85q30 0 30 -34v-337q0 -16 17 -19l-3 -10h-69q-20 0 -20 25v237
l-114 -262h-41q-18 0 -24.5 6.5t-6.5 26.5l-23 217l-76 -211q-3 -11 -3 -17q0 -11 12 -12l-2 -10h-65q-16 0 -16 13q0 2 2 10l123 334q3 8 3 14q0 14 -17 18l3 11h66q16 0 22.5 -7t8.5 -21l24 -240l95 225q3 8 3 14q0 14 -16 18z" />
    </font>
</defs>
</svg>
